<?xml version="1.0" encoding="utf-8" ?><svg xmlns="http://www.w3.org/2000/svg" xmlns:xlink="http://www.w3.org/1999/xlink" width="1024" height="1024" viewBox="0 0 1024 1024"><path fill="#92BAE0" d="M0 0L1024 0L1024 1024L0 1024L0 0Z"/><path d="M430.199 110.11C443.529 109.143 444.57 124.985 450.83 133.862C460.516 147.599 472.698 157.722 484.957 169.014C490.728 174.33 496.704 179.662 499.742 187.045C532.396 186.737 559.927 192.174 588.514 208.535C605.362 183.334 639.227 187.292 663.851 178.068C668.739 176.188 673.536 174.077 678.225 171.744C686.461 167.583 700.469 156.746 708.353 166.188C724.912 186.021 718.508 222.55 717.443 246.259C716.023 277.903 707.72 296.877 685.447 318.713C687.713 331.645 689.723 340.376 697.975 351.029C699.273 348.88 700.592 346.743 701.931 344.619C699.188 324.078 706.104 322.16 723.278 315.958C734.39 311.945 737.827 311.839 746.77 321.004C747.586 319.706 748.51 318.48 749.531 317.336C752.596 313.936 756.875 311.876 761.444 311.602C765.87 311.367 770.208 312.894 773.511 315.848C777.545 319.481 778.738 323.334 779.047 328.524C794.557 332.764 797.965 346.835 786.397 357.958C793.918 363.293 796.713 370.342 793.125 379.328C790.04 387.054 783.98 390.455 776.695 393.537C776.208 397.339 774.996 401.012 773.124 404.357C768.364 412.758 762.342 415.464 753.686 417.866C744.353 432.277 732.937 444.878 723.145 458.723C725.614 462.112 731.077 468.003 734.051 471.378C728.498 476.486 719.606 481.042 712.545 483.57C715.765 486.358 722.034 491.584 725.586 493.654C710.825 505.301 701.924 509.593 683.116 509.57C686.262 515.338 689.267 519.528 693.885 524.143C683.353 526.965 674 528.459 663.221 526.68C646.461 542.682 633.381 554.88 614.618 568.706C623.389 582.559 626.112 590.666 631.04 605.907C627.282 605.225 623.254 604.302 619.491 603.516C623.491 616.599 624.576 623.36 626.235 636.762C623.529 636.024 620.612 635.348 617.875 634.668C620.257 639.327 627.637 654.564 625.442 658.798C624.37 659.252 623.775 659.476 622.786 660.078C623.263 661.588 623.144 661.656 624.26 662.721C633.357 664.075 659.138 655.456 667.476 651.441C704.311 634.259 720.755 597.353 732.059 560.78C735.221 550.547 739.218 527.618 749.361 523.543C769.985 515.256 788.661 543.509 795.396 559.254C806.61 585.857 807.969 615.586 799.229 643.101C796.972 649.994 794.593 655.797 790.939 662.023C790.422 662.903 790.683 663.351 791.036 664.158C792.643 664.576 793.875 663.968 795.514 663.469C787.653 691.662 767.158 713.082 740.256 723.934C743.311 725.441 748.954 726.997 752.338 728.022C720.331 758.021 675.419 759.716 635.848 745.248C634.136 744.622 630.97 743.11 629.395 743.411L627.824 749.853C643.902 753.389 653.712 760.591 661.737 775.176C672.27 794.322 667.157 817.163 675.479 836.816C678.604 844.196 680.991 847.898 682.045 856.333C682.885 863.043 682.282 869.856 680.277 876.315C676.634 888.201 668.325 898.101 657.251 903.75C647.037 908.887 635.213 909.8 624.331 906.293C618.874 904.525 613.918 901.577 610.584 896.788C600.149 881.797 613.017 866.606 604.497 851.151C601.451 845.626 597.853 842.97 591.983 841.139L591.281 840.925C563.502 859.416 541.939 863.685 510.189 850.911C513.506 869.194 514.534 878.849 505.295 895.304C503.408 898.665 499.113 909.729 498.49 913.501C496.515 925.461 499.006 931.987 494.201 944.237C489.765 955.475 481.061 964.5 469.991 969.339C451.941 977.195 428.163 973.059 419.42 953.285C414.084 941.172 420.828 932.746 425.013 922.651C433.791 901.477 419.863 882.61 407.34 867.965C377.848 833.478 349.731 794.744 370.252 748.173C339.751 712.168 326.821 673.122 326.377 626.459C324.698 625.184 324.48 627.127 322.673 625.981C322.029 615.2 326.37 598.789 330.046 588.711L321.233 591.03C322.548 579.043 326.762 565.054 331.221 553.827C332.915 549.563 338.345 543.208 339.345 538.729C339.471 538.166 338.913 537.898 338.383 537.425C337.06 537.224 336.199 537.236 335.143 536.426C335.088 535.718 335.077 535.054 335.095 534.341C335.149 532.189 308.678 494.213 304.939 488.279C281.612 451.905 261.528 413.549 244.919 373.656C243.196 374.684 240.632 375.844 238.776 376.751C237.602 348.862 224.531 355.207 219.29 340.698C217.647 336.149 218.116 331.045 220.148 326.713C212.892 315.436 210.411 303.152 225.034 296.892C222.865 292.278 221.653 288.118 223.166 283.022C224.391 278.917 227.231 275.486 231.035 273.516C236.778 270.54 241.043 271.693 246.623 273.499C249.758 268.062 254.77 264.336 261.234 264.357C265.512 264.389 269.589 266.172 272.516 269.29C276.542 273.529 276.889 277.695 276.852 283.077C297.782 276.502 306.974 290.404 303.447 309.852C317.812 314.844 312.487 323.317 317.197 333.848L323.572 330.07C320.555 326.89 311.094 316.174 315.079 311.966C321.789 311.431 325.605 309.708 331.542 306.796C352.05 296.74 362.392 278.503 375.081 260.864C372.453 256.737 371.576 254.443 370.061 249.839C355.569 207.317 386.285 171.695 408.019 138.52C414.858 128.082 416.777 114.275 430.199 110.11Z"/><path fill="#F0F0EF" d="M698.081 164.567C721.247 164.845 716.891 217.075 716.043 231.803C713.965 267.925 711.241 292.514 682.667 317.467C685.127 330.331 687.372 343.876 697.179 353.395C695.797 356.706 694.435 360.026 693.093 363.354C689.15 363.793 686.374 364.371 682.141 364.667C684.114 367.372 686.017 368.942 688.49 371.185C684.902 376.157 673.029 386.908 668.227 391.203C643.188 413.612 616.7 434.348 588.937 453.278C579.214 459.903 568.82 465.823 558.811 471.993C555.436 474.074 547.126 477.612 545.282 480.451C546.42 480.805 547.649 480.358 548.733 479.796C589.842 458.5 627.259 429.574 662.339 399.546C670.566 392.504 681.541 382.996 688.577 375.065C699.798 362.418 696.845 346.196 715.545 338.675C715.589 327.968 718.636 316.37 732.183 315.836C737.591 315.622 742.094 319.43 745.704 323.149C744.909 325.2 743.291 328.029 744.637 329.866C747.449 329.686 748.903 318.509 754.956 315.788C762.401 312.44 770.508 313.987 775.123 321.193C781.145 330.595 770.777 335.522 769.577 339.645L770.308 340.355C773.938 340.128 776.932 333.81 779.037 331.37C782.403 331.25 785.322 332.342 787.15 335.212C794.712 347.089 789.19 353.005 780.126 359.219C799.933 363.099 793.686 386.267 774.836 391.095C772.401 405.387 766.709 412.183 752.174 415.255C745.991 425.773 731.291 444.309 723.334 454.172C695.707 488.421 666.453 522.733 632.904 551.308C624.354 558.612 615.435 565.472 606.182 571.862C602.729 574.251 594.588 579.019 592.07 581.317C592.173 582.625 591.904 582.075 592.892 582.96C598.503 580.342 607.388 573.845 612.679 570.178C620.037 581.783 623.406 589.446 627.357 602.387C623.659 601.67 619.766 601.106 616.031 600.512C616.565 602.983 617.566 606.017 618.342 608.453C620.969 616.704 622.318 624.808 623.621 633.349C620.335 632.682 617.246 631.933 613.992 631.132C616.739 637.666 623.053 649.633 623.371 656.121C621.572 657.393 620.966 655.859 618.937 657.068C619.306 659.941 622.625 667.115 623.663 670.46C633.312 701.55 632.158 733.138 621.233 763.669C620.3 766.276 617.894 770.245 618.693 772.886L619.433 773.107C622.183 770.517 625.997 756.773 627.319 752.36C642.145 755.268 651.977 762.421 659.326 775.821C668.222 792.043 666.124 810.695 670.222 828.29C672.459 837.896 678.289 846.133 679.495 855.567C680.345 862.267 679.777 869.071 677.829 875.538C675.296 883.764 669.444 893.605 661.615 897.698C652.894 894.945 646.115 889.998 643.848 880.461C643.102 877.324 644.056 873.132 642.886 869.764C639.245 871.008 641.402 881.517 642.523 884.377C645.744 892.591 651.334 896.317 659.035 899.702C643.521 908.83 632.668 907.052 623.599 889.944C621.33 885.663 621.327 881.945 621.4 877.212L619.448 877.247L618.818 878.014C619.222 890.833 624.495 898.802 635 905.887C620.468 904.729 607.75 897.114 608.547 880.556C609.097 869.138 612.753 859.444 605.97 848.767C601.716 842.072 597.355 840.228 590.178 838.362C586.048 841.476 582.099 844.23 577.55 846.738C560.629 856.179 540.609 858.379 522.042 852.836C471.286 838.024 455.937 774.764 477.179 731.11C479.725 725.876 485.757 717.866 487.126 713.15L486.59 712.974C484.447 714.493 482.015 717.729 480.661 719.978C465.418 745.288 462.451 769.269 468.385 797.452C459.803 794.483 457.345 792.42 451.065 786.224C450.907 789.953 450.983 792.185 451.232 795.921C445.835 794.401 441.474 792.027 436.776 789.07C434.689 787.757 428.732 783.392 426.681 782.823C427.049 784.597 427.473 784.98 426.877 786.303C424.137 786.647 418.141 782.84 415.619 781.506C400.355 773.435 387.654 763.792 375.936 751.054C343.894 716.418 327.043 670.402 329.137 623.265L328.544 622.736C326.951 623.207 326.872 623.453 325.364 623.157C324.834 611.641 329.958 595.787 333.879 584.978L324.211 587.713C326.965 563.482 336.654 547.136 350.367 528.09C345.316 529.947 342.112 531.445 337.291 533.887C342.097 517.725 351.219 505.313 365.288 495.791C369.577 492.887 374.124 490.782 378.66 488.3C374.229 485.759 371.456 484.178 367.46 481.029C375.064 474.65 393.688 466.812 404.169 467.644C407.266 467.89 414.666 472.401 417.867 473.699C422.063 475.4 435.849 479.748 439.803 478.46L440.185 477.571C439.086 476.277 434.616 475.879 432.568 475.499C426.297 474.336 412.906 470.327 408.685 465.764C409.875 464.881 409.626 465.427 409.894 464.29C407.731 462.452 399.149 460.155 396.09 458.893C390.587 456.623 387.885 455.311 383.159 451.724C385.147 449.301 386.464 447.598 388.232 445.006C365.917 443.543 343.636 434.281 332.377 413.981C339.08 413.845 340.94 412.78 347.269 410.307C325.749 403.299 313.927 382.906 310.501 361.666C316.661 361.931 319.073 361.783 325.065 360.408C315.456 353.519 313.165 349.586 308.975 338.535C319.254 336.055 319.307 334.65 328.78 330.197C321.602 325.436 319.253 322.352 316.191 314.469C355.814 306.598 368.471 269.451 391.864 242.505C412.741 218.386 440.586 201.339 471.56 193.714C510.963 183.894 554.508 191.012 589.271 211.825C589.508 211.42 589.751 211.019 589.998 210.62C605.833 185.245 641.656 189.232 666.076 179.658C671.462 177.546 676.087 175.51 681.244 172.854C687.064 169.859 691.698 166.055 698.081 164.567Z"/><path d="M458.651 295.666C492.259 293.962 505.606 324.428 462.107 319.332C459.965 326.857 459.61 332.411 460.955 340.019C471.823 344.947 486.829 345.353 498.08 341.399C503.632 339.448 509.597 336.481 515.272 335.174C522.425 333.497 529.952 334.788 536.136 338.754C543.498 343.545 547.172 351.978 548.983 360.246C556.597 395.014 514.132 422.796 485.161 428.377C470.516 430.658 459.068 430.044 444.82 425.969C408.659 415.626 380.379 376.09 390.858 338.312C396.823 317.831 418.51 312.676 433.788 326.919C441.04 333.679 449.336 336.735 458.384 339.836C456.555 331.461 457.662 326.433 459.583 318.256C448.513 312.684 440.736 297.857 458.651 295.666Z"/><path fill="#EE9AA3" d="M459.294 383.714C464.048 383.617 467.552 383.908 472.252 384.302C466.524 386.992 461.83 389.311 457.975 394.681C454.733 399.118 453.405 404.669 454.288 410.092C454.588 411.871 454.384 411.719 455.468 412.519L456.605 412.313C457.476 410.285 456.33 407.22 456.595 404.764C457.856 393.086 471.025 384.241 482.391 386.045C497.894 388.507 511.219 397.845 520.68 410.193C517.357 412.828 512.988 415.301 509.292 417.483C498.159 423.539 485.756 426.886 473.088 427.254C450.898 428.158 429.296 419.99 413.257 404.63C424.369 389.246 441.358 384.783 459.294 383.714Z"/><path fill="#F0F0EF" d="M511.945 338.493C512.048 338.484 513.76 338.208 513.89 338.59C514.862 341.649 513.984 345.833 513.582 349.005C512.489 357.616 504.317 369.292 494.87 362.262L494.176 361.757C489.121 356.571 488.826 353.161 488.502 346.082C494.092 344.908 499.254 344.026 504.503 341.544C506.718 340.496 509.224 339.459 511.525 338.639L511.945 338.493Z"/><path fill="#F0F0EF" d="M430.262 326.824C439.62 333.665 440.201 336.882 453.072 339.768C452.084 343.046 450.669 347.855 448.77 350.659L448.274 351.41C443.143 355.731 436.077 355.887 432.063 350.012C427.5 343.333 428.37 334.287 430.262 326.824Z"/><path fill="#F0F0EF" d="M456.332 341.371C467.219 344.867 472.003 346.287 483.48 346.457C482.074 350.474 481.673 351.461 479.346 355.131C477.616 357.105 475.723 358.99 473 359.377C460.702 361.124 458.089 350.82 456.332 341.371Z"/><path fill="#F0F0EF" d="M460.589 298.937C463.195 299.116 478.018 300.78 477.233 304.412L476.494 304.247C474.04 303.713 470.627 302.8 468.246 302.537L463.244 301.954C461.057 301.702 459.875 301.695 460.459 299.555L460.589 298.937Z"/><path d="M693.306 186.145C693.619 186.297 694.229 186.793 694.536 187.025C694.817 190.267 685.22 209.901 683.305 213.347C696.973 213.922 703.179 216.504 695.554 230.019C691.624 236.985 688.385 241.426 682.523 246.903C687.275 247.555 690.096 247.501 694.929 247.421C690.339 260.01 687.45 263.818 676.592 271.973C680.411 273.12 684.912 273.839 688.876 274.579C682.622 285.248 672.234 293.584 661.178 298.881L660.521 298.931C659.278 298.006 658.292 293.153 657.828 291.409C653.681 275.84 644.805 262.286 632.816 251.607C630.918 249.915 623.678 244.661 622.952 242.854C625.28 241.906 626.07 242.975 627.772 244.234C640.67 209.724 678.103 212.53 693.306 186.145Z"/><path fill="#A2A1A1" d="M687.443 197.989C687.779 198.314 687.574 198.067 687.798 198.885C686.081 203.685 681.468 212.607 678.014 216.297C685.984 215.815 689.547 215.85 696.954 219.029C693.935 232.72 686.202 241.377 675.064 249.093C680.516 249.577 686.175 249.868 691.721 250.35C686.716 262.05 681.639 265.513 671.417 272.457C676.252 274.386 679.895 275.259 684.96 276.369C680.646 282.248 676.95 285.778 671.197 290.118C668.026 292.221 664.817 294.266 661.572 296.252C657.107 277.069 645.907 257.785 630.083 245.864C638.078 220.137 666.506 213.391 687.443 197.989Z"/><path d="M734.446 342.584C766.569 341.033 781.217 377.501 755.502 383.412C752.303 383.83 750.706 383.984 747.3 383.712C732.236 382.508 713.79 365.721 722.732 349.911C725.161 345.616 729.642 343.655 734.446 342.584Z"/><path fill="#F0F0EF" d="M734.329 345.065C739.611 344.874 743.749 345.006 748.73 347.072C759.043 351.348 769.885 361.818 764.823 373.887C762.899 378.474 759.251 379.648 754.979 381.191C747.688 382.196 743.591 381.357 736.782 377.935C727.676 373.357 718.979 361.633 724.669 351.305C726.6 347.8 730.467 345.998 734.329 345.065Z"/><path d="M549.031 303.706C561.592 302.656 570.272 308.296 579.258 315.875C583.697 314.999 586.615 314.252 590.767 312.348C593.752 310.978 597.886 305.816 600.236 305.688L601.33 306.786C597.381 312.509 587.195 317.056 580.406 317.797L585.696 325.317C591.237 324.838 593.346 324.338 598.266 321.353C599.761 320.446 601.324 318.989 602.866 318.699L603.486 319.353C602.86 324.662 590.964 326.9 586.597 327.533C587.213 330.59 587.265 333.503 589.718 335.236C591.951 335.838 593.671 335.247 595.986 334.796C599.482 333.398 600.052 331.792 604.465 331.129L604.612 331.675C601.88 335.025 588.483 339.735 587.019 338.19C574.083 324.535 568.729 316.398 549.191 313.089C539.637 311.471 520.618 320.019 517.591 318.707L517.165 317.606C518.73 310.522 541.934 304.336 549.031 303.706Z"/><path d="M394.703 257.618C396.838 258.712 396.261 259.128 397.105 261.407C398.941 266.367 401.1 269.001 405.01 272.446C423.034 272.311 433.758 280.579 441.763 297.06C442.292 298.149 441.893 299.015 441.335 299.909L440.136 300.179C437.825 299.005 433.759 294.28 431.519 292.253C421.617 283.292 413.49 283.008 401.019 283.437C396.426 283.742 389.598 286.56 384.74 287.968C380.719 284.897 377.847 280.974 377.152 275.888L377.657 275.282C380.37 276.701 378.603 279.227 384.246 283.583L384.829 284.027C387.991 280.432 389.544 278.948 393.502 276.391C390.484 274.633 382.749 270.054 384.561 265.808C386.346 266.169 389.232 270.966 391.328 272.441C393.353 273.865 393.849 274.093 396.103 275.042L396.758 275.312C398.59 274.677 400.32 273.879 402.094 273.101C397.893 268.889 394.028 263.982 394.703 257.618Z"/><path d="M567.138 240.076C569.951 240.028 571.955 240.16 574.747 240.539C584.905 241.92 595.885 254.391 594.177 264.893C592.772 264.448 592.136 264.603 592 263.025C591.052 252.308 582.914 243.9 572.249 242.559C569.62 242.229 567.397 243.564 567.204 240.888L567.138 240.076Z"/><path d="M436.91 214.62C443.106 214.002 450.058 215.474 455.087 219.439C455.887 220.07 455.063 221.371 454.803 221.289C451.894 220.372 449.414 218.781 446.235 217.765C440.412 216.454 436.733 215.92 430.991 218.539C430.342 218.835 427.548 220.423 426.996 219.906C424.237 217.321 435.52 214.895 436.91 214.62Z"/><path d="M560.969 251.278C565.722 251.949 579.675 267.493 578.622 270.922C574.937 270.562 569.297 258.505 564.855 256.292C563.656 255.695 561.108 253.654 561.021 252.012L560.969 251.278Z"/><path d="M444.92 230.703C445.249 230.667 453.253 229.41 451.761 232.117C451.354 232.856 448.933 232.87 448.05 232.895C442.833 233.042 437.739 233.603 432.591 234.557C431.04 234.958 421.687 236.954 428.498 233.08C429.009 232.789 435.906 231.675 437.003 231.548L444.92 230.703Z"/><path fill="#F0F0EF" d="M261.388 266.664C280.407 269.123 271.491 285.853 275.146 289.007C276.154 288.463 276.185 287.653 276.771 286.303C281.681 283.18 290.368 283.2 295.311 286.298C301.17 289.969 302.372 298.62 301.594 304.926C301.318 307.158 300.044 311.427 300.473 313.414L301.614 313.676C302.639 313.234 304.768 312.421 305.781 313.005C313.723 317.584 311.209 327.229 314.961 334.675C311.946 335.377 310.019 335.267 307.031 336.349C304.354 341.847 315.114 355.399 319.253 359.372C314.746 359.475 312.211 359.504 307.791 358.935C309.171 383.13 321.438 397.209 340.16 410.428L340.214 411.006C337.658 412.652 330.259 410.866 327.431 409.948C329.451 414.361 331.963 418.531 334.919 422.378C346.69 437.413 365.876 445.108 384.41 447.257C382.684 448.867 380.615 450.486 378.774 451.996C388.672 458.824 393.523 460.661 404.161 464.814C386.722 467.76 377.546 469.716 363.126 481.295L373.442 487.946C365.283 492.485 359.516 496.599 352.772 503C345.423 510.581 339.655 519.547 335.802 529.376C332.092 524.834 325.657 515.199 322.139 510.064C303.154 482.36 285.65 452.301 269.97 422.605C261.387 406.351 252.029 387.159 246.294 369.741C244.621 371.074 243.092 371.968 241.284 373.087C239.702 361.723 237.351 355.025 227.985 348.492C220.394 343.197 219.68 334.263 222.702 326.35C222.969 325.651 215.644 315.73 216.75 313.54C217.054 309.809 216.54 306.268 220.068 302.752C226.044 296.318 227.372 301.939 232.506 301.824C231.762 299.823 227.798 297.682 226.608 295.001C224.911 291.177 224.238 287.281 225.601 283.279C226.843 279.666 229.551 276.743 233.06 275.229C237.782 273.207 241.117 274.26 245.523 275.943C245.333 280.344 245.049 286.879 249.338 289.529L249.956 289.032C250.319 286.221 248.115 284.87 247.771 282.037C246.659 272.886 253.041 267.944 261.388 266.664Z"/><path d="M263.478 304.179C294.951 304.901 291.64 336.24 262.455 341.176C231.418 341.042 231.879 307.371 263.478 304.179Z"/><path fill="#F0F0EF" d="M261.438 306.621C287.163 303.82 292.431 330.916 264.411 338.483C258.619 338.825 254.299 338.795 249.192 335.791C241.811 331.45 239.57 323.11 244.54 315.992C248.627 310.139 254.751 307.937 261.438 306.621Z"/><path fill="#F0F0EF" d="M738.389 590.341C749.541 601.578 747.685 619.327 741.4 632.449C757.148 628.161 765.744 618.1 770.907 603.193C787.458 623.136 788.581 645.8 775.022 667.75C780.685 667.534 786.345 667.268 792.003 666.952C789.44 673.283 787.021 679.389 783.317 685.177C771.563 703.546 754.469 718.041 733.049 723.079C737.527 725.389 742.722 727.736 747.501 729.281C738.981 736.066 733.094 739.977 723.129 744.292C691.928 756.452 660.468 752.508 630.076 740.609C634.82 709.116 633.212 695.563 624.527 665.493C666.381 660.532 695.393 643.855 716.293 606.567C726.951 603.771 732.39 599.376 738.389 590.341Z"/><path fill="#F0F0EF" d="M371.802 750.292C373.278 751.291 381.437 759.956 383.458 761.887C390.781 768.88 398.626 774.483 407.342 779.594C410.688 781.555 426.28 790.515 428.88 789.853L429.678 787.946C432.587 788.354 448.461 799.917 454.3 799.123C454.943 797.27 453.669 795.488 453.708 792.631C455.18 792.831 463.088 798.596 469.17 800.171C476.949 824.005 486.778 836.174 507.277 849.618C511.097 866.53 512.236 878.089 503.621 893.179C501.297 897.25 497.05 908.374 496.193 912.961C494.387 922.62 496.402 930.405 492.98 940.611C489.079 952.244 481.725 960.615 470.883 966.276C466.411 964.642 463.137 962.942 460.319 959.137C455.548 952.698 456.059 945.223 457.975 937.938C458.233 936.958 457.599 936.325 457.003 935.686L456.208 936.076C454.879 938.536 454.81 939.368 454.276 942.148C453.186 953.526 456.854 962.614 467.522 967.774C448.81 974.356 433.918 969.865 434.562 945.936C434.637 943.132 436.882 939.079 435.896 936.3L435.064 936.43C431.775 939.887 431.769 950.402 432.729 955.035C433.94 960.883 436.533 964.769 440.183 969.188C432.131 965.448 425.275 961.26 421.917 952.474C419.331 946.148 419.691 937.8 423.064 931.77C428.04 922.875 430.346 917.797 429.919 907.389C429.213 890.209 419.269 878.714 408.769 866.221C381.177 833.393 352.513 794.934 371.802 750.292Z"/><path fill="#A2A1A1" d="M754.172 524.129C776.939 522.767 793.526 557.319 798.516 575.504C806.701 605.601 802.519 637.719 786.902 664.717C784.511 664.844 781.963 664.863 779.556 664.925C788.975 646.518 789.373 628.15 778.945 610.045C775.938 605.468 773.568 602.397 769.723 598.509C769.002 601.307 768.064 604.677 766.963 607.315C763.037 616.734 755.574 624.239 746.177 628.216C751.232 613.012 749.52 597.904 738.02 586.103C734.976 595.155 726.175 600.45 717.828 603.851C726.893 584.471 733.418 565.874 739.051 545.266C741.717 535.516 743.45 527.366 754.172 524.129Z"/><path fill="#F0F0EF" d="M429.627 112.521C437.093 111.912 439.64 115.277 442.094 121.779C449.82 142.249 467.504 156.022 483.024 170.454C488.466 175.515 494.157 180.314 497.087 187.392C474.702 188.798 459.38 194.416 439.343 202.749C439.582 192.285 439.483 183.45 437.392 173.095C435.269 162.583 429.998 151.636 430.062 140.922C430.07 139.438 431.829 131.073 432.209 129.176L431.746 128.65L430.857 128.798C426.433 133.917 427.976 147.214 429.24 153.366C420.05 159.277 420.088 162.983 418.817 173.235C417.243 170.549 415.946 167.877 414.56 165.094C406.116 172.863 402.679 181.022 401.849 192.209L396.445 188.137C389.783 198.813 389.531 207.454 391.082 219.429C386.89 217.344 386.132 216.469 382.908 213.223C382.853 223.462 384.406 232.497 389.117 241.632C384.841 247.25 380.614 252.906 376.437 258.598C353.54 213.419 386.877 174.809 410.574 139.043C417.379 128.772 417.386 118.744 429.627 112.521Z"/><path fill="#A2A1A1" d="M428.801 156.304L429.902 156.656C435.891 166.696 437.896 192.615 436.523 204.301C416.543 215.252 406.289 223.544 390.783 239.971C388.287 235.445 387.644 232.818 386.443 227.891C385.9 224.804 385.708 222.41 385.451 219.294C388.958 220.834 391.674 221.948 395.283 223.204C390.974 210.951 391.512 203.458 397.078 191.803C399.329 193.444 401.996 195.151 404.338 196.718C404.633 183.739 405.329 179.423 413.883 169.203C415.428 172.456 419.444 178.73 421.43 182.048C421.677 172.025 420.237 163.124 428.801 156.304Z"/><path fill="#F0F0EF" d="M721.547 460.472C724.683 463.946 727.777 467.459 730.826 471.01C723.286 476.437 718.522 479.514 709.546 481.681L708.124 482.033C713.292 488.189 715.373 489.24 721.145 494.281C712.872 500.092 710.286 501.999 700.734 505.158C694.444 506.886 688.274 507.309 681.789 507.223C687.786 499.844 694.087 493.076 700.214 485.872C707.367 477.463 714.171 468.712 721.547 460.472Z"/><path fill="#F0F0EF" d="M679.656 509.361C680.949 510.337 687.38 520.426 689.275 522.841C684.065 524.065 680.407 524.399 675.17 524.943C671.856 525.034 668.541 525.03 665.228 524.932C669.338 520.456 675.401 513.277 679.656 509.361Z"/><path fill="#F0F0EF" d="M716.496 320.529C716.625 320.667 716.754 320.805 716.883 320.943C716.997 321.25 716.642 322 716.499 322.225C713.333 327.249 713.594 331.034 713.605 336.729C709.117 338.86 708.014 339.441 704.342 342.707C704.239 342.477 704.136 342.247 704.033 342.018C701.354 331.115 707.214 323.356 716.496 320.529Z"/><path fill="#F0F0EF" d="M687.344 366.458C689.305 366.403 691.616 365.4 691.328 367.773L691.269 368.357C689.011 369.554 689.392 368.862 687.758 366.937L687.344 366.458Z"/><path fill="#F0F0EF" d="M342.067 533.71C343.229 534.677 342.94 534.841 342.022 536.042L341.533 536.833C339.721 535.313 340.412 535.2 342.067 533.71Z"/><path d="M810.225 89.3665C810.978 90.4291 816.25 120.913 817.231 125.265C829.247 129.215 841.287 133.088 853.353 136.881C843.168 141.737 830.502 148.266 820.662 153.717C820.456 166.254 820.44 178.793 820.612 191.33C814.528 183.45 802.376 174.232 795.352 166.608C794.22 165.379 793.347 165.598 791.858 165.74C781.605 169.476 770.171 173.297 760.205 177.466C764.409 166.673 770.453 153.964 775.125 142.991C767.164 133.981 759.822 123.662 752.03 114.313C761.408 114.58 779.726 117.043 788.991 118.64C796.205 109.102 803.113 98.5021 810.225 89.3665Z"/><path fill="#F9CC61" d="M808.685 95.8752C809.979 97.5899 814.325 123.258 815.043 127.17C824.322 130.696 836.886 133.938 846.86 137.39C837.32 142.274 827.809 147.213 818.326 152.207C818.216 163.262 818.216 174.318 818.327 185.372C815.7 182.833 795.131 162.449 793.769 162.371C784.173 166.1 774.501 169.634 764.761 172.97C768.899 163.419 773.425 152.148 777.97 142.953C771.323 134.872 763.833 125.464 757.722 117.022C764.984 117.779 783.233 119.75 789.881 121.515C796.224 113.036 802.203 104.274 808.685 95.8752Z"/><path d="M233.877 80.5939C236.817 81.5504 243.618 84.727 246.777 86.0514C253.562 88.8881 260.412 91.5702 267.319 94.0956C267.492 112.142 256.615 115.895 256.931 132.091C257.422 157.182 278.56 154.427 291.5 166.761C300.627 175.461 301.737 189.057 301.733 200.89C297.991 203.486 294.665 206.336 291.341 209.433C288.104 212.726 282.652 218.618 279.119 221.162C280.003 207.599 280.182 200.902 275.313 187.894C266.653 164.763 241.889 173.017 233.357 149.868C228.189 135.847 230.483 124.861 236.716 111.657C240.388 103.879 241.78 94.7719 236.569 87.3937C235.626 85.993 233.41 83.0477 232.868 81.7149L233.877 80.5939Z"/><path fill="#EA6969" d="M238.23 85.2075C241.694 86.0772 260.963 94.2137 265.102 95.9047C264.768 98.4189 264.314 102.395 263.477 104.637C259.771 114.131 253.993 121.967 254.522 132.664C254.855 139.412 256.051 144.311 260.496 149.806C268.159 159.276 280.698 159.597 289.248 167.972C297.867 176.415 299.272 187.825 299.422 198.976C296.905 201.074 294.405 203.192 291.922 205.33C288.721 208.425 285.474 211.802 282.323 214.976C282.627 198.082 277.605 174.243 259.627 168.545C236.916 161.348 227.838 143.092 235.609 120.543C240.316 106.884 247.137 100.28 238.23 85.2075Z"/><path d="M859.926 350.403C879.747 372.797 891.25 402.952 862.306 422.489C837.847 439 845.444 439.576 847.523 465.959C848.414 477.283 839.525 488.389 831.461 496.199C827.826 493.581 825.369 492.817 821.211 491.396C816.986 490.182 814.264 489.511 809.951 488.734C825.993 472.316 826.626 465.816 821.865 443.987C817.271 422.921 841.544 414.953 852.301 401.069C862.504 387.901 854.266 373.589 842.464 365.006C848.803 360.437 854.227 355.708 859.926 350.403Z"/><path fill="#F9CC61" d="M859.088 354.327C859.768 354.621 859.827 354.531 860.232 355.059C868.559 365.917 878.308 378.505 877.492 392.898C876.815 404.848 870.713 413.263 861.327 420.152C856.856 423.434 852.238 425.969 848.159 429.633C836.808 439.83 845.479 453.349 845.008 466.179C844.606 477.151 839.437 485.486 831.599 492.948C829.34 491.834 827.097 490.932 824.775 489.966C821.764 488.936 818.039 487.971 814.927 487.083C832.603 468.182 825.831 460.569 824.088 438.433C823.064 425.433 840.791 416.106 849.543 407.857C865.825 392.512 860.706 379.033 846.489 364.802C849.487 362.692 856.014 356.915 859.088 354.327Z"/><path d="M798.308 814.463L799.167 814.927L799.293 815.928C790.33 829.839 790.292 841.846 797.157 856.384C799.494 861.331 801.855 866.715 802.24 872.215C803.152 885.244 793.015 898.092 782.506 904.648C775.617 908.946 768.476 910.591 762.966 917.299C755.534 926.344 755.612 936.099 756.463 946.985C751.661 943.499 746.888 939.33 742.32 935.501C738.38 931.956 734.737 928.755 731.12 924.854C734.429 909.352 741.497 901.197 754.526 891.971C759.396 888.523 765.418 885.368 769.854 881.608C786.991 867.087 772.59 860.927 767.316 846.61C765.344 841.255 765.664 835.61 766.13 830.039C777.792 827.589 787.172 819.808 798.308 814.463Z"/><path fill="#EA6969" d="M793.405 819.436C794.181 820.271 794.059 819.771 793.619 820.934C791.082 827.638 789.374 833.31 789.674 840.491C790.176 852.499 799.844 862.518 799.953 873.819C800.072 886.126 789.994 897.038 780.099 903.092C773.973 906.84 767.721 908.714 762.439 914.221C754.545 922.451 753.522 931.068 753.53 941.786L743.22 932.897C740.12 930.195 737.047 927.462 734.002 924.697C736.62 908.938 745.926 900.214 759.073 891.974C766.352 888.073 783.742 876.505 780.072 866.217C774.5 850.6 767.709 851.556 768.254 831.996C778.064 829.345 784.764 824.6 793.405 819.436Z"/><path d="M290.624 857.336C294.267 859.858 309.122 876.715 314.812 881.771C325.389 879.345 337.235 876.563 347.614 873.621C341.784 882.837 335.338 892.706 329.876 902.071C333.624 909.325 344.017 925.226 348.852 932.117L321.497 924.924L315.307 923.222C308.209 931.968 301.378 941.575 294.145 950.563C293.233 939.458 291.446 928.168 290.368 916.989C279.709 912.843 268.331 908.438 257.549 904.735C267.092 901.336 278.795 894.964 289.085 890.984C289.702 879.773 290.215 868.556 290.624 857.336Z"/><path fill="#EE9AA3" d="M292.743 862.854C299.373 868.679 306.765 877.644 313.887 884.244C321.692 883.067 334.27 879.538 342.297 877.594C337.026 885.872 331.855 894.214 326.786 902.617C331.56 909.682 338.66 922.05 343.403 928.093C335.615 926.416 326.768 923.882 319.068 921.757L314.373 920.808C308.141 928.689 301.985 936.631 295.906 944.631C295.131 934.853 293.726 924.765 292.433 915.035C283.678 912.093 273.252 907.906 264.473 904.625C270.86 901.283 284.767 895.095 291.5 892.511C291.461 884.767 292.179 870.657 292.743 862.854Z"/><path d="M221.418 678.112C232.602 683.452 237.32 682.448 248.658 679.183C247.093 696.359 248.569 712.44 265.532 721.903C269.646 724.123 274.9 725.894 278.686 728.571C292.278 738.179 296.425 758.576 290.729 773.714C287.964 781.061 284.969 785.371 280.542 791.643L279.982 791.749C268.924 787.368 263.958 787.687 252.363 788.471C260.186 780.56 266.018 773.65 267.275 762.306C269.335 743.722 257.836 741.573 245.417 734.154C227.19 723.266 219.112 698.483 221.418 678.112Z"/><path fill="#F9CC61" d="M223.389 681.727C232.337 685.143 236.539 685.233 245.681 682.637C244.899 698.964 248.087 714.78 263.745 723.542C267.976 726.017 273.878 727.734 277.622 730.865C295.987 746.225 293.367 770.329 280.427 787.298C279.963 787.742 279.281 788.521 278.523 788.327C271.463 786.523 265.687 785.509 258.401 785.499C265.66 777.687 270.109 769.118 269.865 758.048C269.401 737.014 251.153 738.296 239.281 726.044C226.679 713.038 223.701 698.998 223.389 681.727Z"/><path d="M231.312 523.851C232.504 525.096 234.134 549.974 234.569 553.943C244.028 558 253.528 561.963 263.066 565.831C254.275 569.92 244.603 573.626 235.561 577.263C234.268 587.142 233.578 597.806 232.535 607.845C230 604.91 214.213 585.801 212.335 584.327L211.12 584.563C201.924 587.171 192.782 589.844 183.467 592.002C188.039 583.283 193.724 574.189 198.546 565.354C192.84 556.829 187.316 548.183 181.98 539.422C191.502 542.065 202.346 544.062 212.072 545.931C218.713 538.854 224.842 530.522 231.312 523.851Z"/><path fill="#F9CC61" d="M229.799 529.405C230.796 533.948 231.735 550.154 232.22 555.739C238.639 557.992 250.378 563.066 256.583 565.941C249.459 568.754 239.851 572.651 233.119 575.971L230.549 601.732C224.835 595.578 219.593 587.985 213.691 582.154C212.829 581.303 212.096 581.762 210.886 582.018C204.326 584.009 195.401 586.879 188.812 587.966C192.07 581.037 197.475 572.325 201.461 565.557C196.688 558.271 192.037 550.906 187.509 543.465C193.465 544.531 207.882 546.894 212.882 548.612C218.621 542.298 224.261 535.895 229.799 529.405Z"/><path d="M168.137 193.324C168.415 193.749 168.613 194.056 168.852 194.512C176.408 208.932 182.704 214.866 197.498 220.767L196.978 221.202C190.551 226.501 187.096 232.381 183.537 239.682C167.66 231.958 164.367 226.873 154.932 213.254C162.316 203.927 162.262 202.669 168.137 193.324Z"/><path fill="#F9CC61" d="M167.89 198.322C169.226 199.504 170.83 203.064 172.136 204.918C177.795 212.95 183.745 217.414 192.427 221.619C187.385 227.708 186.781 228.971 182.74 235.356L182.469 235.78C182.227 235.785 181.769 235.816 181.557 235.73C170.898 231.38 164.007 222.779 158.066 213.373L158.552 212.731C163.431 206.162 163.723 205.569 167.89 198.322Z"/><path d="M858.577 237.653C863.68 240.628 869.233 242.909 874.975 244.297C871.401 257.916 867.872 265.337 857.5 275.242C855.523 277.13 853.429 279.604 851.32 281.326C844.218 277.382 841.177 274.845 833.121 272.432C848.308 262.893 854.545 255.32 858.577 237.653Z"/><path fill="#EE9AA3" d="M860.509 241.525C864.01 242.981 866.59 244.238 870.261 245.414L872.439 246.108C866.012 264.422 864.286 264.751 850.876 278.137C847.571 276.599 842.878 273.641 838.907 271.696C850.721 263.329 856.46 255.278 860.509 241.525Z"/><path d="M847.31 745.189C848.981 746.092 850.469 747.761 851.986 749.066C855.725 752.279 858.075 754.06 862.29 756.534C857.431 762.833 853.875 769.847 847.127 774.645C844.657 776.401 836.445 782.537 833.735 782.654C828.813 778.627 822.304 773.853 816.857 770.61C831.958 764.801 839.817 759.457 847.31 745.189Z"/><path fill="#EE9AA3" d="M848.208 749.206C852.055 751.727 854.386 754.133 858.793 756.811C856.016 761.455 854.714 763.621 850.963 767.805C848.281 770.798 837.715 779.519 834.035 779.599C830.439 776.791 826.72 774.143 822.946 771.58L822.18 771.045C834.213 765.385 841.292 761.073 848.208 749.206Z"/><path d="M171.978 420.815C183.849 426.4 189.871 428.703 200.839 437.098C196.287 443.361 195.203 445.441 191.701 452.392C190.515 451.291 189.503 450.392 188.271 449.345C179.92 442.521 166.738 437.645 156.144 436.116C161.135 431.163 166.878 425.669 171.978 420.815Z"/><path fill="#EA6969" d="M172.611 423.916C182.493 427.311 188.698 431.488 197.302 437.279C195.403 440.613 193.037 444.819 190.773 447.877C190.536 448.196 188.665 446.532 188.655 446.524C179.709 440.049 171.763 436.818 160.985 434.671C164.78 430.995 168.543 427.279 172.611 423.916Z"/><path d="M659.412 76.5444C659.86 77.1133 659.916 77.2276 659.974 77.9736C660.831 89.0221 665.248 97.5224 671.829 106.102C668.17 107.671 657.902 110.787 653.784 111.89C649.628 102.867 644.534 92.9689 640.774 83.9206L641.124 83.8105C647.415 81.911 653.533 79.4802 659.412 76.5444Z"/><path fill="#EA6969" d="M656.971 80.5356C657.765 81.2746 658.587 85.4439 658.983 86.8365C660.819 93.2889 663.442 98.8441 667.337 104.342L667.878 105.13C667.049 105.352 666.299 105.596 665.493 105.815C662.692 106.555 659.906 107.354 657.139 108.212L656.253 108.503L655.412 108.765C651.895 102.55 647.221 92.1292 643.993 85.3132C648.425 84.0185 652.831 82.6067 656.971 80.5356Z"/><path d="M372.806 65.4199C372.614 65.2096 380.81 79.7394 381.509 80.9046C370.686 88.5779 365.675 91.4796 352.129 94.349C351.41 93.7093 345.507 80.5315 343.368 77.5248C356.544 77.6793 363.485 74.5233 372.806 65.4199Z"/><path fill="#F9CC61" d="M371.798 69.9238C372.61 70.5473 377.398 78.3904 378.454 79.9718C370.083 86.7927 364.802 88.4759 354.627 91.158C352.273 90.6836 349.796 83.518 348.634 81.0952L348.21 80.2287C358.924 78.6069 363.456 76.507 371.798 69.9238Z"/><path d="M863.868 581.679C873.852 586.656 880.709 594.675 887.047 603.518C883.076 607.88 881.988 610.546 879.447 615.68C879.314 616.154 879.134 616.882 878.532 616.89C876.843 615.962 874.995 604.029 860.007 599.83L857.99 599.254C860.54 592.658 861.97 588.536 863.868 581.679Z"/><path fill="#F9CC61" d="M865.406 585.711C871.576 588.603 879.792 597.595 883.834 603.247C882.188 605.67 880.784 607.78 879.255 610.284C878.441 611.364 877.908 610.385 877.263 609.452C873.181 603.553 868.592 599.83 861.793 597.555C863.202 593.489 864.228 589.824 865.406 585.711Z"/><path d="M182.405 847.671C188.403 851.166 193.02 851.997 199.613 853.212C193.237 862.158 190.187 868.619 186.768 878.781C182.184 876.721 178.237 875.424 173.246 874.565C171.841 874.328 170.433 874.108 169.023 873.906C175.112 866.655 180.281 856.915 182.405 847.671Z"/><path fill="#F9CC61" d="M184.132 851.252C188.034 853.55 191.144 854.017 195.329 854.954C191.729 860.611 187.044 868.533 185.115 874.991C181.668 873.815 177.216 873.023 174.063 871.744C178.008 865.221 181.762 858.524 184.132 851.252Z"/></svg>