<?xml version="1.0" encoding="utf-8" ?><svg xmlns="http://www.w3.org/2000/svg" xmlns:xlink="http://www.w3.org/1999/xlink" width="1024" height="1024" viewBox="0 0 1024 1024"><path fill="#F0F0F0" d="M637.106 227.575L637.792 227.154C642.485 224.22 649.731 217.66 654.986 214.071C677.575 198.642 701.753 184.206 728.731 178.121C732.753 177.213 739.868 176.179 743.68 177.137C755.494 180.104 769.374 195.557 774.968 205.857C787.717 229.332 795.155 262.666 794.71 289.361C794.629 293.819 794.594 297.714 793.557 302.077C792.815 305.199 790.308 310.158 790.142 312.99C788.673 337.992 781.207 357.726 769.616 379.975L766.365 376.568C764.548 379.869 762.449 383.92 760.414 387C760.343 391.132 751.807 399.724 748.92 402.515C747.969 403.431 747.006 404.336 746.034 405.23C752.593 418.592 760.172 430.052 771.92 439.429C772.832 440.158 776.501 441.954 775.708 442.869C783.103 447.06 791.257 449.74 799.696 450.755C800.176 464.065 796.522 469.854 786.968 478.655C790.66 477.487 797.142 475.221 800.643 474.464C800.572 486.466 797.466 493.806 791.142 504.064C790.16 505.658 787.013 509.932 786.376 511.128C784.288 514.815 779.893 518.564 777.138 521.948C779.908 521.756 782.792 521.519 785.557 521.387C770.058 573.063 676.004 610.873 628.897 623.067C644.29 640.819 660.283 663.815 661.584 688.532C661.667 690.094 661.014 690.888 659.926 691.832C657.473 692.365 656.116 691.64 653.97 690.487C655.837 703.627 658.162 716.829 658.355 730.14C673.633 734.14 689.805 743.563 698.822 757.142C699.111 757.577 699.059 757.542 699.163 758.034C700.652 760.319 702.227 762.664 703.64 764.987C705.468 767.105 706.504 769.108 707.903 771.515C711.346 770.825 719.659 768.942 722.776 768.888L723.616 768.682C731.213 766.128 737.31 764.771 745.008 761.582C767.461 752.282 790.684 735.236 801.948 713.113C806.15 704.859 805.643 696.718 814.202 692.017C843.071 697.25 853.377 751.443 852.252 775.904C851.944 782.598 850.865 791.403 849.589 798.065C846.036 816.203 838.738 833.399 828.163 848.557C823.471 855.241 818.155 861.465 812.288 867.146C780.157 898.084 732.943 910.347 689.304 909.531C669.301 927.352 637.64 937.322 615.57 917.376C610.008 924.291 602.802 930.276 593.271 929.366C587.185 928.786 580.4 931.535 574.175 932.369C566.833 934.688 555.368 929.155 549.625 929.201C531.209 929.348 521.739 921.546 518.284 903.49C517.764 900.774 519.341 896.569 517.88 893.485L516.999 893.171C515.188 895.282 516.773 903.079 515.867 906.973C513.589 916.769 507.832 923.233 498.527 926.952C493.707 928.879 487.848 928.051 483.179 929.155C470.5 932.152 460.415 933.948 447.582 930.014C434.106 926.868 430.535 930.738 419.741 917.777C401.332 934.692 374.672 929.391 355.199 917.36C335.101 904.944 317.857 884.797 312.088 861.514C310.39 854.662 308.909 845.483 313.079 839.275C313.812 837.914 316.594 834.494 316.365 832.949C312.819 809.026 317.144 785.947 329.679 764.805C339.804 747.729 353.71 735.799 373.929 730.891C373.993 718.893 377.183 703.778 377.75 691.232C375.899 691.888 373.827 692.798 371.986 692.31C367.893 688.034 373.121 671.513 375.829 666.821L376.251 665.631C378.705 652.5 393.063 632.947 402.025 623.037C360.833 610.626 323.906 597.403 289.235 570.729C284.448 567.046 275.584 560.048 272.136 555.537C258.551 542.185 255.98 537.56 247.735 521.019C250.536 521.685 253.325 522.404 256.099 523.175C256.567 520.775 245.433 512.635 244.319 507.979C240.845 502.653 228.891 481.454 232.849 475.573C235.515 474.477 242.491 477.492 245.676 478.571C235.441 467.468 234.408 465.988 233.449 451.122C262.94 446.461 274.033 430.891 287.879 405.592C286.797 404.171 285.74 402.872 284.604 401.494C280.306 396.769 277.748 393.587 274.181 388.294C272.688 386.077 268.359 379.039 266.895 377.536C265.684 378.407 265.785 378.422 264.329 378.638C256.458 375.134 246.474 335.455 244.775 325.807C244.112 322.042 243.777 309.914 242.406 307.372L241.038 306.968C240.811 306.567 240.435 305.922 240.342 305.456C235.831 282.902 242.238 260.088 246.362 237.999C246.884 235.203 247.51 232.354 248.341 229.665C250.744 222.107 253.911 214.813 257.793 207.896C276.731 173.801 294.879 171.483 329.762 186.869C358.184 199.405 383.161 217.754 406.885 237.551C407.114 237.666 407.343 237.781 407.573 237.896C410.648 239.533 412.111 238.061 415.216 236.614C424.072 232.488 432.798 228.241 442.123 225.203C502.068 205.316 567.499 210.434 623.621 239.402C626.83 236.131 633.239 229.234 637.106 227.575Z"/><path fill="#F0F0F0" d="M776.429 523.089C774.144 524.836 771.822 526.534 769.465 528.182L768.526 527.846L768.852 528.556L768.139 528.902L768.127 528.559L768.548 528.844L768.459 528.15L769.105 528.581L768.945 527.642C771.679 524.975 775.249 522.354 778.15 519.466C780.854 516.775 783.654 513.553 786.376 511.128C784.288 514.815 779.893 518.564 777.138 521.948C779.908 521.756 782.792 521.519 785.557 521.387C770.058 573.063 676.004 610.873 628.897 623.067C644.29 640.819 660.283 663.815 661.584 688.532C661.667 690.094 661.014 690.888 659.926 691.832C657.473 692.365 656.116 691.64 653.97 690.487C655.837 703.627 658.162 716.829 658.355 730.14C673.633 734.14 689.805 743.563 698.822 757.142C699.111 757.577 699.059 757.542 699.163 758.034C700.652 760.319 702.227 762.664 703.64 764.987C705.468 767.105 706.504 769.108 707.903 771.515C711.346 770.825 719.659 768.942 722.776 768.888L723.616 768.682C731.213 766.128 737.31 764.771 745.008 761.582C767.461 752.282 790.684 735.236 801.948 713.113C806.15 704.859 805.643 696.718 814.202 692.017C843.071 697.25 853.377 751.443 852.252 775.904C851.944 782.598 850.865 791.403 849.589 798.065C846.036 816.203 838.738 833.399 828.163 848.557C823.471 855.241 818.155 861.465 812.288 867.146C780.157 898.084 732.943 910.347 689.304 909.531C669.301 927.352 637.64 937.322 615.57 917.376C610.008 924.291 602.802 930.276 593.271 929.366C587.185 928.786 580.4 931.535 574.175 932.369C566.833 934.688 555.368 929.155 549.625 929.201C531.209 929.348 521.739 921.546 518.284 903.49C517.764 900.774 519.341 896.569 517.88 893.485L516.999 893.171C515.188 895.282 516.773 903.079 515.867 906.973C513.589 916.769 507.832 923.233 498.527 926.952C493.707 928.879 487.848 928.051 483.179 929.155C470.5 932.152 460.415 933.948 447.582 930.014C434.106 926.868 430.535 930.738 419.741 917.777C401.332 934.692 374.672 929.391 355.199 917.36C335.101 904.944 317.857 884.797 312.088 861.514C310.39 854.662 308.909 845.483 313.079 839.275C313.812 837.914 316.594 834.494 316.365 832.949C312.819 809.026 317.144 785.947 329.679 764.805C339.804 747.729 353.71 735.799 373.929 730.891C373.993 718.893 377.183 703.778 377.75 691.232C375.899 691.888 373.827 692.798 371.986 692.31C367.893 688.034 373.121 671.513 375.829 666.821L376.251 665.631C378.705 652.5 393.063 632.947 402.025 623.037C360.833 610.626 323.906 597.403 289.235 570.729C284.448 567.046 275.584 560.048 272.136 555.537C278.007 559.689 285.732 566.971 292.834 572.119C316.407 588.912 342.232 602.295 369.544 611.873C450.068 640.649 537.305 644.957 620.272 624.254C648.394 617.605 675.705 607.903 701.719 595.321C730.029 581.534 773.779 553.232 784.408 522.396L776.429 523.089Z"/><path fill="#1D1C1D" d="M776.429 523.089C774.144 524.836 771.822 526.534 769.465 528.182L768.526 527.846L768.852 528.556L768.139 528.902L768.127 528.559L768.548 528.844L768.459 528.15L769.105 528.581L768.945 527.642C771.679 524.975 775.249 522.354 778.15 519.466C780.854 516.775 783.654 513.553 786.376 511.128C784.288 514.815 779.893 518.564 777.138 521.948C779.908 521.756 782.792 521.519 785.557 521.387C770.058 573.063 676.004 610.873 628.897 623.067C644.29 640.819 660.283 663.815 661.584 688.532C661.667 690.094 661.014 690.888 659.926 691.832C657.473 692.365 656.116 691.64 653.97 690.487C655.837 703.627 658.162 716.829 658.355 730.14C673.633 734.14 689.805 743.563 698.822 757.142C699.111 757.577 699.059 757.542 699.163 758.034C700.652 760.319 702.227 762.664 703.64 764.987C705.468 767.105 706.504 769.108 707.903 771.515C711.346 770.825 719.659 768.942 722.776 768.888L723.616 768.682C731.213 766.128 737.31 764.771 745.008 761.582C767.461 752.282 790.684 735.236 801.948 713.113C806.15 704.859 805.643 696.718 814.202 692.017C843.071 697.25 853.377 751.443 852.252 775.904C851.944 782.598 850.865 791.403 849.589 798.065C846.036 816.203 838.738 833.399 828.163 848.557C823.471 855.241 818.155 861.465 812.288 867.146C780.157 898.084 732.943 910.347 689.304 909.531C669.301 927.352 637.64 937.322 615.57 917.376C610.008 924.291 602.802 930.276 593.271 929.366C587.185 928.786 580.4 931.535 574.175 932.369C566.833 934.688 555.368 929.155 549.625 929.201C531.209 929.348 521.739 921.546 518.284 903.49C517.764 900.774 519.341 896.569 517.88 893.485L516.999 893.171C515.188 895.282 516.773 903.079 515.867 906.973C513.589 916.769 507.832 923.233 498.527 926.952C493.707 928.879 487.848 928.051 483.179 929.155C470.5 932.152 460.415 933.948 447.582 930.014C434.106 926.868 430.535 930.738 419.741 917.777C401.332 934.692 374.672 929.391 355.199 917.36C335.101 904.944 317.857 884.797 312.088 861.514C310.39 854.662 308.909 845.483 313.079 839.275C313.812 837.914 316.594 834.494 316.365 832.949C312.819 809.026 317.144 785.947 329.679 764.805C339.804 747.729 353.71 735.799 373.929 730.891C373.993 718.893 377.183 703.778 377.75 691.232C375.899 691.888 373.827 692.798 371.986 692.31C367.893 688.034 373.121 671.513 375.829 666.821C374.885 670.965 368.158 688.09 373.417 690.716C375.126 691.57 378.689 688.424 380.09 687.078C378.702 694.763 373.297 728.372 375.357 734.285C378.431 735.457 376.723 732.795 378.671 735.296C379.766 742.769 379.318 777.184 384.075 782.1C384.968 782.384 385.819 782.661 386.635 783.127C390.346 793.057 392.232 805.446 395.413 815.792C398.489 817.467 407.574 832.358 410.173 836.139C418.302 847.957 426.837 859.491 435.764 870.719C436.027 873.475 435.436 872.619 434.485 875.516C427.35 879.825 421.845 883.549 418.419 891.585C412.191 906.192 419.504 923.359 435.276 927.259C439.088 928.202 442.045 928.199 445.959 928.324C444.998 921.588 443.217 905.2 446.717 899.206C447.225 901.036 445.975 911.513 446.031 914.692C446.126 920.085 446.345 922.873 447.241 928.298C459.39 933.661 471.64 931.592 483.732 927.505C485.297 919.977 485.829 914.206 484.894 906.513C484.667 904.648 483.715 900.525 483.791 899.155L484.563 899.629C487.937 907.326 486.274 919.583 484.619 927.519C490.579 927.576 494.462 927.624 500.011 925.016C506.784 921.849 511.963 916.045 514.341 908.956C516.581 902.2 516.04 894.829 512.838 888.472C509.41 881.754 504.159 877.872 497.185 875.522C496.167 859.984 494.779 844.473 493.022 829.001C491.057 810.289 489.575 791.517 483.347 773.6C480.705 765.999 476.623 760.149 473.294 752.864C485.89 767.684 488.954 790.667 492.242 809.385C493.378 827.845 496.372 846.392 497.513 864.877C497.707 868.017 498.015 871.571 498.566 874.66C505.213 877.741 509.723 880.553 513.045 887.471C517.108 895.93 520.938 888.946 524.202 884.245L524.904 884.504C514.862 899.5 518.442 917.939 535.489 926.05C539.876 928.138 543.916 928.103 548.647 928.164C548.06 916.398 545.754 909.18 550.082 897.408C548.94 909.172 547.926 916.307 550.204 928.031C563.815 931.925 573.324 933.368 587.01 928.149C588.471 912.799 586.91 910.259 586.372 896.438C589.876 906.464 588.751 917.61 588.399 928.182C600.429 929.122 610.899 925.004 616.37 913.538C621.192 903.434 618.504 889.572 609.7 882.427C607.037 880.267 604.214 878.7 601.561 876.389L601.138 876.014C601.222 875.629 601.473 874.473 601.697 874.067C611.677 856.036 623.186 837.699 635.083 820.875C635.661 820.059 636.464 819.709 637.268 819.38C638.444 814.502 644.954 785.032 646.589 782.576C647.415 783.047 647.644 783.143 648.537 783.476C654.872 776.217 652.996 736.537 654.588 734.47C655.652 734.637 656.271 734.916 657.243 735.377C659.737 729.504 653.466 693.961 652.063 686.491C654.051 688.271 656.758 691.047 659.415 691.229C662.013 689.162 659.407 678.294 658.669 675.214C653.693 654.437 641.38 640.351 628.856 624.098C628.411 623.953 627.965 623.808 627.52 623.663C551.616 643.57 479.133 642.9 403.263 623.114L399.658 627.071C392.718 635.62 387.91 642.178 382.651 652.134C380.57 656.074 378.147 662.3 376.251 665.631C378.705 652.5 393.063 632.947 402.025 623.037C360.833 610.626 323.906 597.403 289.235 570.729C284.448 567.046 275.584 560.048 272.136 555.537C278.007 559.689 285.732 566.971 292.834 572.119C316.407 588.912 342.232 602.295 369.544 611.873C450.068 640.649 537.305 644.957 620.272 624.254C648.394 617.605 675.705 607.903 701.719 595.321C730.029 581.534 773.779 553.232 784.408 522.396L776.429 523.089Z"/><path fill="#F0F0F0" d="M814.202 692.017C843.071 697.25 853.377 751.443 852.252 775.904C851.944 782.598 850.865 791.403 849.589 798.065C846.036 816.203 838.738 833.399 828.163 848.557C826.967 849.347 825.086 850.854 824.483 852.147L823.199 853.445C814.895 854.41 806.788 858.361 798.701 860.136C775.487 865.23 745.059 866.672 722.734 858.116C725.193 846.311 723.487 839.098 713.9 831.478C718.684 812.101 714.802 790.872 708.604 772.335C713.388 771.336 718.148 770.462 722.776 768.888L723.616 768.682C731.213 766.128 737.31 764.771 745.008 761.582C767.461 752.282 790.684 735.236 801.948 713.113C806.15 704.859 805.643 696.718 814.202 692.017Z"/><path fill="#7F7F86" d="M814.202 692.017C843.071 697.25 853.377 751.443 852.252 775.904C851.944 782.598 850.865 791.403 849.589 798.065C846.036 816.203 838.738 833.399 828.163 848.557C826.967 849.347 825.086 850.854 824.483 852.147C824.026 851.644 823.941 851.473 823.325 851.164C810.879 845.069 822.871 834.542 826.104 826.776C828.223 821.687 839.607 799.956 832.97 796.891C829.725 797.685 821.76 807.06 816.984 811.004C808.997 817.599 788.559 828.732 780.062 817.415C775.45 811.274 793.723 794.481 796.879 788.746C798.558 785.694 808.423 771.722 805.276 767.389C800.624 766.456 794.604 771.381 790.15 772.331C773.051 775.979 763.191 773.491 761.427 754.76C751.627 759.693 734.154 768.141 723.616 768.682C731.213 766.128 737.31 764.771 745.008 761.582C767.461 752.282 790.684 735.236 801.948 713.113C806.15 704.859 805.643 696.718 814.202 692.017Z"/><path fill="#F0F0F0" d="M347.57 809.598C352.808 804.454 358.116 803.113 365.03 804.249C390.213 808.387 399.866 832.044 408.188 852.971C409.862 857.181 416.213 865.077 419.147 869.034C417.628 882.071 416.25 893.684 405.138 902.539C396.254 909.62 381.62 910.64 370.693 909.147C354.462 906.931 340.237 896.09 329.635 884.13C325.401 879.354 322.383 872.87 316.394 870.648C309.987 855.307 308.463 845.667 320.017 832.188C321.114 814.697 331.284 808.908 347.57 809.598Z"/><path fill="#1D1C1D" d="M366.269 853.595C395.937 851.238 399.18 884.927 371.81 895.18C343.981 898.693 337.548 863.789 366.269 853.595Z"/><path fill="#1D1C1D" d="M341.655 825.435C353.54 827.162 360.215 842.436 347.604 848.746C336.204 847.804 327.697 832.696 341.655 825.435Z"/><path fill="#1D1C1D" d="M365.591 820.48C366.105 820.476 366.62 820.479 367.135 820.489C378.429 820.738 385.103 834.687 375.336 842.647C374.227 842.86 373.098 842.955 371.969 842.931C364.635 842.787 360.1 834.94 360.921 828.189C361.416 824.113 362.5 823.028 365.591 820.48Z"/><path fill="#1D1C1D" d="M324.861 849.56C330.7 849.315 334.593 849.927 338.499 854.859C342.867 860.373 340.834 865.255 335.751 868.967C323.556 869.907 314.481 858.385 324.861 849.56Z"/><path fill="#F0F0F0" d="M649.686 784.324C655.234 770.952 654.843 751.84 654.605 737.411C654.572 735.349 656.307 737.382 658.354 735.842C658.69 734.17 658.618 733.475 658.582 731.805L659.187 731.263C669.392 732.221 687.189 744.485 693.754 752.08C695.419 754.006 697.276 756.433 699.163 758.034C700.652 760.319 702.227 762.664 703.64 764.987C713.995 787.945 715.593 800.85 713.736 826.218C709.517 812.515 701.613 807.337 687.385 808.09C674.022 799.183 664.7 801.131 651.712 809.179C646.491 802.767 649.439 796.846 645.488 790.852C645.72 786.728 646.269 786.4 649.686 784.324Z"/><path fill="#D5D4D4" d="M722.734 858.116C745.059 866.672 775.487 865.23 798.701 860.136C806.788 858.361 814.895 854.41 823.199 853.445C794.353 888.617 757.225 902.804 713.087 907.978C706.554 908.743 697.253 908.815 690.486 909.062C705.69 894.843 718.412 879.047 722.734 858.116Z"/><path fill="#D5D4D4" d="M395.413 815.792C398.489 817.467 407.574 832.358 410.173 836.139C418.302 847.957 426.837 859.491 435.764 870.719C436.027 873.475 435.436 872.619 434.485 875.516C427.681 875.012 419.935 884.505 417.675 890.527C414.114 900.017 414.994 907.756 418.941 916.877C415.257 919.855 411.114 923.146 406.585 924.713C369.953 937.385 328.688 902.33 316.394 870.648C322.383 872.87 325.401 879.354 329.635 884.13C340.237 896.09 354.462 906.931 370.693 909.147C381.62 910.64 396.254 909.62 405.138 902.539C416.25 893.684 417.628 882.071 419.147 869.034C421.813 871.583 422.397 872.181 425.638 874.059L426.248 870.506L425.773 869.91L426.078 868.945C425.504 870.52 425.441 871.064 424.507 872.447C424.294 872.336 424.081 872.226 423.869 872.116C409.446 858.651 399.821 834.079 395.413 815.792Z"/><path fill="#D5D4D4" d="M601.138 876.014C601.222 875.629 601.473 874.473 601.697 874.067C611.677 856.036 623.186 837.699 635.083 820.875C635.661 820.059 636.464 819.709 637.268 819.38C634.132 834.542 625.576 854.636 616.034 866.785C614.998 868.104 612.992 870.358 611.298 870.513C610.249 869.175 610.569 868.917 610.353 866.882C608.526 868.016 606.616 875.231 605.604 877.78C604.061 876.963 602.848 876.109 601.138 876.014Z"/><path fill="#D5D4D4" d="M645.488 790.852C649.439 796.846 646.491 802.767 651.712 809.179C646.419 813.45 642.098 818.045 637.448 822.948C640.783 811.638 642.948 802.308 645.488 790.852Z"/><path fill="#F0F0F0" d="M668.104 803.644C677.103 803.218 680.107 804.548 687.403 809.561C688.749 809.302 689.642 809.167 691.031 809.123C696.904 808.924 702.6 811.152 706.779 815.284C712.073 820.603 712.467 825.618 712.531 832.478C713.099 832.732 713.657 833.008 714.205 833.303C717.882 835.258 720.723 839.886 721.746 843.792C724.835 855.582 718.901 870.035 712.852 879.952C698.905 902.82 681.776 919.128 655.459 925.878C639.369 929.038 628.331 927.904 616.177 916.414C623.752 900.337 619.22 888.772 606.287 878.152C607.484 875.064 607.683 872.632 611.105 871.609C615.507 870.293 617.351 867.87 619.613 864.048C623.412 857.631 627.118 851.003 630.058 844.13C633.132 837.141 635.077 829.548 639.297 823.178C645.902 813.078 656.276 806.043 668.104 803.644Z"/><path fill="#1D1C1D" d="M661.502 853.098C666.273 852.894 670.769 853.544 675.063 855.76C680.855 858.719 685.221 863.874 687.184 870.075C691.038 882.403 684.146 891.364 672.523 894.893C646.633 900.049 633.04 859.235 661.502 853.098Z"/><path fill="#1D1C1D" d="M662.488 820.496C670.264 820.237 674.833 823.655 673.024 832.218C671.916 837.467 668.766 840.017 664.417 842.716C656.976 844.176 652.839 840.298 654.106 832.812C655.088 827.009 658.084 823.877 662.488 820.496Z"/><path fill="#1D1C1D" d="M689.034 825.987C705.275 826.445 700.63 842.201 689.942 848.381C676.004 849.143 677.906 832.703 689.034 825.987Z"/><path fill="#1D1C1D" d="M703.152 848.501C719.362 848.116 717.316 861.245 706.393 868.351C703.164 868.941 698.42 868.946 696.562 865.975C691.95 858.603 697.963 852.161 703.152 848.501Z"/><path fill="#F0F0F0" d="M372.489 732.138L373.092 732.28C374.815 735.975 375.888 734.874 377.09 736.613C378.034 737.979 379.73 773.127 381.518 780.011C382.125 782.347 383.447 783.251 385.406 784.39L385.922 784.684C388.522 789.732 390.512 803.246 392.207 809.31C393.534 814.062 395.208 819.539 396.41 824.279C383.293 809.403 366.261 793.645 346.53 808.567C344.081 808.431 341.067 808.516 338.572 808.517C324.948 811.799 320.708 817.883 318.818 830.998L318.399 830.994C315.435 826.119 317.414 802.165 318.528 796.252C323.583 769.415 344.015 737.825 372.489 732.138Z"/><path fill="#D5D4D4" d="M403.263 623.114C479.133 642.9 551.616 643.57 627.52 623.663C627.965 623.808 628.411 623.953 628.856 624.098C624.607 629.252 618.1 633.678 612.333 636.932C552.472 670.715 454.503 669.102 399.658 627.071L403.263 623.114Z"/><path fill="#D5D4D4" d="M492.242 809.385C499.021 815.539 513.132 853.817 518.107 864.828C524.336 853.71 528.903 836.234 533.91 824.312C535.413 820.733 536.908 815.435 538.954 812.289C538.032 832.898 536.468 854.071 536.482 874.68C530.224 877.327 528.048 878.32 524.202 884.245C520.938 888.946 517.108 895.93 513.045 887.471C509.723 880.553 505.213 877.741 498.566 874.66C498.015 871.571 497.707 868.017 497.513 864.877C496.372 846.392 493.378 827.845 492.242 809.385Z"/><path fill="#1D1C1D" d="M538.954 812.289C540.853 796.125 543.503 778.658 550.658 763.893C551.337 762.494 553.169 758.714 554.437 758.059C554.382 759.667 550.475 766.001 549.708 768.294C538.626 801.402 536.99 841.119 537.795 875.685C530.989 877.482 529.344 878.982 524.904 884.504L524.202 884.245C528.048 878.32 530.224 877.327 536.482 874.68C536.468 854.071 538.032 832.898 538.954 812.289Z"/><path fill="#F0F0F0" d="M637.106 227.575L637.792 227.154C642.485 224.22 649.731 217.66 654.986 214.071C677.575 198.642 701.753 184.206 728.731 178.121C732.753 177.213 739.868 176.179 743.68 177.137C755.494 180.104 769.374 195.557 774.968 205.857C787.717 229.332 795.155 262.666 794.71 289.361C794.629 293.819 794.594 297.714 793.557 302.077C792.815 305.199 790.308 310.158 790.142 312.99C788.673 337.992 781.207 357.726 769.616 379.975L766.365 376.568C764.548 379.869 762.449 383.92 760.414 387C757.02 392.355 750.285 399.83 745.94 404.284C740.213 394.671 735.142 380.58 731.093 369.965C728.96 365.037 726.843 356.059 724.604 350.27C712.289 318.439 701 302.502 677.067 278.798C660.374 262.938 644.576 250.951 624.573 239.782C628.479 235.336 633.147 231.988 637.106 227.575Z"/><path fill="#7F7F86" d="M677.067 278.798C686.733 261.852 692.641 252.972 705.579 238.659C729.643 212.035 752.332 212.634 761.428 250.268C771.682 292.689 755.738 336.011 731.093 369.965C728.96 365.037 726.843 356.059 724.604 350.27C712.289 318.439 701 302.502 677.067 278.798Z"/><path fill="#F0F0F0" d="M284.604 401.494C280.306 396.769 277.748 393.587 274.181 388.294C272.688 386.077 268.359 379.039 266.895 377.536C265.684 378.407 265.785 378.422 264.329 378.638C256.458 375.134 246.474 335.455 244.775 325.807C244.112 322.042 243.777 309.914 242.406 307.372L241.038 306.968C240.811 306.567 240.435 305.922 240.342 305.456C235.831 282.902 242.238 260.088 246.362 237.999C246.884 235.203 247.51 232.354 248.341 229.665C250.744 222.107 253.911 214.813 257.793 207.896C276.731 173.801 294.879 171.483 329.762 186.869C358.184 199.405 383.161 217.754 406.885 237.551C407.114 237.666 407.343 237.781 407.573 237.896L408.505 239.507C407.696 240.632 394.045 248.512 391.345 250.391C378.923 259.006 367.2 268.589 356.287 279.05C352.409 282.985 342.307 292.755 340.174 297.014C339.796 298.12 332.637 307.313 331.706 308.135C327.84 309.603 317.204 331.965 314.821 336.926C309.689 347.606 306.407 360.339 301.469 370.778C299.173 376.895 291.272 398.217 287.616 403.162C286.345 403.004 285.65 402.282 284.604 401.494Z"/><path fill="#7F7F86" d="M301.469 370.778C276.681 341.203 262.985 287.717 272.167 250.281C274.304 241.57 280.369 227.566 288.712 223.399C310.775 212.38 332.382 244.071 344.173 258.665C348.21 263.767 353.257 273.527 356.287 279.05C352.409 282.985 342.307 292.755 340.174 297.014C339.796 298.12 332.637 307.313 331.706 308.135C327.84 309.603 317.204 331.965 314.821 336.926C309.689 347.606 306.407 360.339 301.469 370.778Z"/><path fill="#1D1C1D" d="M407.573 237.896C410.648 239.533 412.111 238.061 415.216 236.614C424.072 232.488 432.798 228.241 442.123 225.203C502.068 205.316 567.499 210.434 623.621 239.402C626.83 236.131 633.239 229.234 637.106 227.575C633.147 231.988 628.479 235.336 624.573 239.782C644.576 250.951 660.374 262.938 677.067 278.798C701 302.502 712.289 318.439 724.604 350.27C726.843 356.059 728.96 365.037 731.093 369.965C735.142 380.58 740.213 394.671 745.94 404.284C750.285 399.83 757.02 392.355 760.414 387C760.343 391.132 751.807 399.724 748.92 402.515C747.969 403.431 747.006 404.336 746.034 405.23C752.593 418.592 760.172 430.052 771.92 439.429C772.832 440.158 776.501 441.954 775.708 442.869C771.529 441.351 765.028 434.962 762.124 431.666C738.307 404.633 732.023 369.401 718.393 337.299C710.823 319.47 699.036 302.731 685.72 288.662C640.826 241.231 582.695 213.717 516.848 214.476C463.084 214.279 414.88 230.558 373.427 265.237C359.717 276.707 352.543 284.613 340.174 297.014C342.307 292.755 352.409 282.985 356.287 279.05C367.2 268.589 378.923 259.006 391.345 250.391C394.045 248.512 407.696 240.632 408.505 239.507L407.573 237.896Z"/><path fill="#1D1C1D" d="M301.469 370.778C306.407 360.339 309.689 347.606 314.821 336.926C317.204 331.965 327.84 309.603 331.706 308.135C323.128 321.82 318.75 329.969 312.582 344.409C308.56 353.827 292.713 399.664 287.879 405.592C286.797 404.171 285.74 402.872 284.604 401.494C285.65 402.282 286.345 403.004 287.616 403.162C291.272 398.217 299.173 376.895 301.469 370.778Z"/><path fill="#1D1C1D" d="M244.319 507.979C244.939 508.437 249.617 513.85 249.842 514.292C251.183 516.918 266.962 529.553 267.147 530.299C263.619 528.441 259.54 525.411 256.099 523.175C256.567 520.775 245.433 512.635 244.319 507.979Z"/><path fill="#1D1C1D" d="M517.818 464.227C529.92 463.53 543.533 470.464 548.041 482.091C550.064 487.16 549.952 492.831 547.731 497.816C542.424 509.77 531.51 512.222 521.036 516.349C520.992 523.96 520.837 531.804 521.222 539.383C529.636 544.309 537.191 546.624 546.562 545.567C560.298 544.018 569.83 536.253 577.355 525.238C578.566 523.466 579.722 522.978 581.871 522.769C585.143 523.925 585.32 527.055 583.591 529.631C573.638 544.456 557.686 554.196 539.469 552.888C530.739 552.261 524.735 549.271 517.15 545.063C496.044 556.905 479.061 556.728 460.214 540.709C456.946 537.931 443.389 525.345 453.124 522.982C455.281 522.459 459.605 529.505 460.954 531.031C465.967 536.91 473.074 541.72 480.515 544.082C492.403 547.878 502.282 544.951 512.872 539.38C513.967 532.662 513.603 523.132 513.505 516.189C505.775 514.321 499.778 512.693 493.322 507.687C483.054 499.858 480.117 485.607 489.221 475.609C496.948 467.123 506.891 464.951 517.818 464.227Z"/><path fill="#F0F0F0" d="M505.525 472.505C509.868 472.458 512.941 472.049 515.739 476.046C516.254 479.805 514.078 480.715 511.097 482.293C510.73 482.319 510.362 482.337 509.994 482.347C502.986 482.514 497.023 477.952 505.525 472.505Z"/><path fill="#1D1C1D" d="M618.063 417.194C635.828 415.419 651.693 428.321 653.576 446.075C655.459 463.829 642.653 479.772 624.91 481.763C607.015 483.77 590.905 470.83 589.006 452.923C587.107 435.016 600.144 418.985 618.063 417.194Z"/><path fill="#1D1C1D" d="M408.642 417.215C426.459 415.553 442.256 428.635 443.944 446.449C445.631 464.264 432.573 480.079 414.761 481.793C396.912 483.511 381.056 470.419 379.365 452.568C377.674 434.717 390.789 418.88 408.642 417.215Z"/></svg>