<?xml version="1.0" encoding="utf-8" ?><svg xmlns="http://www.w3.org/2000/svg" xmlns:xlink="http://www.w3.org/1999/xlink" width="1024" height="1024" viewBox="0 0 1024 1024"><path fill="#171616" d="M412.538 268.063C432.026 265.796 458.109 304.553 469.152 318.912C476.358 312.869 484.368 307.857 492.953 304.019C501.717 300.071 515.632 295.989 525.066 299.158C532.749 301.738 528.173 311.697 526.057 316.126C547.088 307.149 583.501 300.933 605.086 309.386C610.079 311.341 614.251 314.083 616.386 319.142C632.461 304.754 653.842 292.947 673.233 283.757C700.741 270.72 704.489 291.433 706.247 313.321C709.12 349.094 707.714 387.624 700.107 422.852C712.146 418.349 718.28 426.292 717.708 437.875C716.819 455.845 708.678 471.733 700.126 487.051C705.282 486.691 718.963 485.899 716.699 495.365C712.545 512.731 695.47 527.142 681.701 537.544C684.735 548.993 684.006 561.115 679.621 572.119C670.68 594.576 650.291 609.376 628.723 618.58C630.561 621.2 632.539 624.418 634.308 627.14C655.311 638.482 680.465 659.053 691.954 680.333C705.999 706.346 694.985 729.305 669.501 741.972C669.928 744.556 670.157 747.701 670.419 750.347C682.012 757.684 690.273 767.331 698.119 778.345C702.779 776.233 707.331 776.8 711.796 778.998C724.851 772.858 727.193 774.676 738.326 782.507C739.989 783.676 743.122 784.378 745.011 786.002C749.034 789.463 751.701 793.732 752.22 799.078C754.335 816.127 740.374 826.836 736.094 838.95C730.858 853.768 729.219 874.034 718.858 887.583C714.002 893.934 706.313 897.82 698.356 898.539C681.493 900.062 670.107 890.176 658.004 880.31C640.337 879.014 621.771 876.877 603.923 875.276C591.182 881.161 578.378 886.986 564.553 889.797C556.887 921.828 534.514 945.812 501.368 922.44C497.177 919.485 493.451 915.488 489.023 912.958C489.021 912.957 486.161 912.906 485.876 912.901C452.996 911.342 421.886 903.875 394.2 885.116C387.696 880.708 382.168 875.723 376.337 870.512C332.095 878.513 276.687 854.533 246.426 822.457C221.114 795.626 204.218 758.802 205.44 721.431C207.025 672.992 232.61 626.352 267.06 593.247C278.263 583.343 292.401 570.055 308.183 569.483C313.776 569.28 316.606 574.933 316.342 579.898C315.254 600.357 310.337 620.501 308.115 640.967C304.123 677.742 306.635 716.649 324.309 749.861C329.424 759.492 335.571 766.936 342.288 775.346C343.339 754.498 346.784 736.143 354.725 716.746C350.8 717.715 344.175 720.009 342.63 714.983C343.539 709.448 352.75 698.999 355.443 691.781C360.055 679.421 362.319 667.269 366.265 654.855C372.047 636.662 380.022 617.964 389.395 601.328C393.026 594.884 397.961 587.863 401.981 581.478C389.663 576.756 378.018 570.438 367.345 562.686C357.221 555.428 341.804 542.991 339.309 529.788C337.526 520.351 348.787 521.218 354.985 520.993C346.051 509.701 336.628 497.471 334.26 482.884C332.602 472.674 335.756 464.723 346.646 463.198L347.352 463.105C346.989 459.779 344.474 455.135 343.458 451.115C339.923 437.113 336.419 413.557 349.86 403.544C353.209 401.05 356.94 402.677 360.569 403.534C361.131 401.51 361.477 396.16 361.781 393.771C362.461 388.419 363.074 383.121 364.014 377.789C367.933 355.016 374.298 332.732 382.998 311.324C388.494 297.887 399.049 273.732 412.538 268.063Z"/><path fill="#EBEBEB" d="M362.398 413.615C362.489 416.839 363.412 430.035 365.314 431.866L366.091 431.314C366.569 427.073 365.3 422.508 365.241 418.323C365.093 407.994 365.565 396.811 367.295 386.567C373.246 351.325 383.114 315.407 401.828 284.646C407.859 273.771 416.087 267.766 427.133 277.772C446.876 295.764 462.694 318.336 478.589 339.714C480.736 342.601 489.297 357.723 491.332 357.701C490.873 353.944 474.682 328.346 471.331 323.455C484.443 313.077 495.828 306.311 512.598 303.183C514.884 302.939 524.646 302.237 524.773 306.237C524.923 310.93 513.862 325.361 513.7 328.659C517.374 326.664 523.737 321.875 527.216 320.461C546.77 312.511 572.66 308.624 593.336 311.586C594.309 311.723 595.279 311.883 596.244 312.067C604.075 313.851 617.961 317.528 607.611 325.287C604.149 327.883 601.784 330.675 597.251 332.107C594.048 333.586 590.609 333.999 587.76 335.911C591.303 336.609 594.854 337.37 598.399 338.041C621.82 342.47 644.526 357.216 657.742 377.021C663.686 385.841 667.532 395.905 668.986 406.441C669.833 410.828 668.948 414.879 669.868 418.117L670.766 418.386L671.519 417.668C672.406 411.223 671.171 403.791 669.748 397.503C663.308 374.921 650.237 358.572 629.994 346.384C620.592 341.474 614.844 338.707 604.376 335.769C611.106 329.847 617.788 323.842 624.948 318.437C636.37 309.816 675.673 283.43 689.346 284.506C691.822 284.701 693.737 285.633 695.285 287.597C699.428 292.85 700.079 302.188 700.839 308.65C704.606 340.683 702.844 372.907 698.078 404.717C697.159 410.847 696.461 417.1 694.53 423.012C692.831 428.214 690.094 433.437 689.01 438.772L689.581 438.306C693.867 434.777 700.693 425.136 706.708 426.235C715.709 428.161 713.139 440.678 711.582 446.935C708.719 458.44 704.362 469.41 698.772 479.824C697.238 482.681 694.486 486.748 694.807 489.916C698.07 494.039 706.003 488.862 710.732 492.303C716.687 502.2 687.251 527.257 680.341 532.121C673.25 516.93 664.667 507.554 650.564 498.364C659.694 493.241 666.034 486.852 668.679 476.528C673.826 456.441 668.776 438.938 652.552 426.354C651.711 425.953 648.912 425.294 650.721 424.545C656.238 423.562 667.513 421.273 668.69 415.015C666.24 412.422 664.756 412.267 661.116 412.272C648.327 412.288 632.519 411.228 622.643 402.109C619.893 399.569 610.071 383.166 604.906 392.155C598.606 403.119 609.382 412.004 617.186 418.104C613.904 420.94 610.749 423.647 608.284 427.241C593.515 448.771 599.657 481.754 621.616 495.809C608.787 497.681 589.901 499.612 581.272 510.324C573.36 520.275 583.921 532.156 592.007 537.676C610.511 550.309 637.742 546.037 650.437 527.366C658.564 515.413 651.247 506.812 641.052 500.795C643.071 500.514 645.002 500.305 646.975 499.79C654.323 506.902 661.599 512.25 667.827 520.621C684.833 543.478 680.256 572.818 660.076 592.223C633.908 617.387 597.015 625.18 561.711 625.053C552.94 624.997 544.177 624.49 535.457 623.533C532.447 623.232 523.012 621.602 520.823 622.859C523.55 624.763 531.171 625.316 534.683 625.81C557.97 629.083 580.083 629.494 603.343 625.35C610.299 624.09 617.167 622.385 623.904 620.245C626.374 623.364 627.73 625.028 629.661 628.466C634.617 636.327 638.738 645.026 642.994 653.34C629.037 656.042 626.858 665.641 634.302 676.889C627.12 677.981 619.935 679.489 615.216 685.783C612.919 688.835 611.976 692.697 612.609 696.464C612.929 698.418 613.671 699.864 614.574 701.597C609.185 711.432 609.517 721.632 619.379 728.322C620.778 754.007 649 748.208 665.464 743.541C666.154 770.208 662.316 799.417 648.721 822.902C633.455 854.209 599.302 877.523 565.725 885.07C567.806 878.45 572.741 862.812 577.037 857.816C582.004 849.283 586.645 840.301 582.864 830.136C581.046 825.296 577.386 821.373 572.685 819.223C566.085 807.655 557.469 807.108 546.059 812.564C545.614 812.309 545.166 812.06 544.715 811.818C533.034 805.587 525.446 813.121 520.284 822.872C514.763 808.998 508.902 798.72 497.33 788.69C478.19 772.101 452.851 765.17 427.832 765.702C426.619 765.728 426.819 765.76 426.075 766.665C427.893 768.4 437.906 768.785 443.245 769.478C474.559 773.548 513.593 797.097 516.72 831.382C517.188 836.514 503.682 865.795 502.915 873.022C502.656 875.461 499.961 881.103 500.21 883.919L500.946 884.507C501.278 884.412 501.61 884.318 501.941 884.224C504.318 879.31 505.272 873.756 507.359 868.72C513.876 852.991 519.899 837.092 526.083 821.261C526.681 819.731 528.817 816.967 530.434 816.154C533.469 814.629 541.453 811.543 543.595 816.038C545.29 820.101 543.998 825.158 542.485 829.078C541.795 830.867 541.062 832.436 541.93 834.204C547.414 831.616 547.703 821.656 547.375 816.575C548.176 816.17 548.983 815.779 549.798 815.403C553.812 813.558 557.797 812.71 561.78 814.475C573.446 819.644 570.904 826.956 566.121 836.281C565.552 837.391 565.824 838.247 566.339 839.248L567.474 839.423C571.308 837.353 572.873 827.779 573.077 823.747C575.179 825.973 576.804 827.975 578.135 830.764C579.911 834.395 580.368 838.531 579.428 842.463C578.321 847.235 574.592 853.278 571.786 857.511C558.048 878.206 561.748 911.582 537.267 924.483C523.818 931.571 509.431 923.858 499.392 914.769C497.954 913.467 492.248 908.305 490.744 908.303C438.268 908.251 381.369 886.234 358.099 835.925C344.877 807.876 344.655 772.963 351.375 742.633C353.825 731.572 358.595 719.525 362.567 708.588C356.558 710.883 353.82 712.115 347.451 713.654C364.99 692.286 364.502 673.665 373.518 648.728C381.066 627.852 389.097 609.902 401.271 591.429C402.31 589.442 406.626 583.656 408.186 581.829L409.081 582.059C412.227 582.897 414.973 584.572 417.625 582.697C413.572 580.808 406.576 578.832 401.828 576.833C387.818 570.879 374.707 562.999 362.876 553.421C358.519 549.874 339.487 532.571 345.573 526.723C349.977 525.202 360.579 525.958 365.664 526.088C355.712 512.874 334.88 493.14 339.962 473.504C342.163 464.997 351.34 469.306 356.5 472.024C349.004 455.663 339.159 428.507 349.608 411.07C354.258 403.311 358.57 409.137 362.398 413.615Z"/><path fill="#87898B" d="M629.994 346.384C638.384 335.076 661.08 315.37 674.806 311.117C681.653 308.995 684.638 317.7 685.117 323.356C687.057 346.265 686.355 380.42 676.403 401.086C674.965 400.093 671.322 397.039 669.748 397.503C663.308 374.921 650.237 358.572 629.994 346.384Z"/><path fill="#D8D7D7" d="M629.661 628.466C629.5 628.597 629.34 628.728 629.179 628.859L628.427 629.446C616.009 639.336 582.566 641.628 567.085 640.01C549.41 638.162 531.002 634.605 515.239 625.847C512.216 624.168 508.92 622.517 506.709 619.905L506.94 619.547C510.782 619.97 516.296 622.043 520.823 622.859C523.55 624.763 531.171 625.316 534.683 625.81C557.97 629.083 580.083 629.494 603.343 625.35C610.299 624.09 617.167 622.385 623.904 620.245C626.374 623.364 627.73 625.028 629.661 628.466Z"/><path fill="#D8D7D7" d="M577.037 857.816C591.322 859.542 624.53 844.533 635.553 835.278C639.444 832.011 645.293 824.758 648.721 822.902C633.455 854.209 599.302 877.523 565.725 885.07C567.806 878.45 572.741 862.812 577.037 857.816Z"/><path fill="#D8D7D7" d="M593.336 311.586C594.309 311.723 595.279 311.883 596.244 312.067C604.075 313.851 617.961 317.528 607.611 325.287C604.149 327.883 601.784 330.675 597.251 332.107C594.048 333.586 590.609 333.999 587.76 335.911C578.93 335.77 570.363 335.806 563.786 328.89C562.244 327.269 560.114 322.807 562.221 320.949C564.248 319.163 568.919 320.254 571.245 320.554C575.711 321.304 579.806 321.208 584.327 320.898C587.567 318.785 591.194 315.969 592.918 312.422L593.336 311.586Z"/><path fill="#D8D7D7" d="M512.598 303.183C514.884 302.939 524.646 302.237 524.773 306.237C524.923 310.93 513.862 325.361 513.7 328.659C510.421 329.147 507.11 332.123 504.029 333.175C500.166 334.494 494.957 332.389 494.285 328.177C492.586 317.536 507.579 313.181 512.598 303.183Z"/><path fill="#D8D7D7" d="M408.186 581.829L409.081 582.059C412.227 582.897 414.973 584.572 417.625 582.697C420.313 583.39 439.451 593.583 441.79 595.252L442.278 595.596C433.206 598.768 425.112 598.382 415.755 596.442C412.241 595.714 404.067 593.48 401.271 591.429C402.31 589.442 406.626 583.656 408.186 581.829Z"/><path fill="#D8D7D7" d="M652.552 426.354C651.711 425.953 648.912 425.294 650.721 424.545C651.294 425.086 652.062 425.758 652.552 426.354Z"/><path fill="#171616" d="M540.321 396.539C553.605 396.83 550.365 408.884 545.24 416.551C541.763 421.752 538.619 425.129 533.955 429.257C559.278 436.081 572.688 458.291 566.257 483.898C563.345 495.593 555.845 505.622 545.45 511.721C534.292 518.262 522.792 518.839 510.516 515.71C505.194 513.728 501.535 512.023 496.88 508.626C486.542 501.149 479.692 489.786 477.907 477.153C475.985 463.727 479.785 452.113 487.72 441.418C482.379 440.03 473.978 438.545 475.719 431.263C477.973 429.351 489.849 427.625 493.543 426.635C503.371 424 512.654 419.957 520.342 413.033C527.7 406.407 530.436 400.332 540.321 396.539Z"/><path fill="#83B6DC" d="M492.092 441.912C499.238 441.943 501.86 441.961 508.644 440.123C497.486 456.238 496.324 471.159 503.202 489.3C498.738 489.781 492.661 492.581 489.045 495.122C477.262 477.816 479.51 457.976 492.092 441.912Z"/><path fill="#EBEBEB" d="M544.655 443.531C547.303 443.399 549.647 443.21 551.997 444.601C564.563 452.04 568.03 472.49 551.462 477.463C548.926 477.662 545.645 477.954 543.289 476.871C529.006 470.31 530.133 449.156 544.655 443.531Z"/><path fill="#EBEBEB" d="M489.045 495.122C492.661 492.581 498.738 489.781 503.202 489.3C509.427 500.585 518.582 508.97 531.443 511.598L531.848 512.403C515.872 517.579 498.38 507.924 489.045 495.122Z"/><path fill="#EBEBEB" d="M517.035 481.02C517.96 480.982 519.354 480.877 520.25 481.039C522.139 481.4 523.792 482.532 524.809 484.164C527.586 488.54 524.525 492.943 520.55 495.122C510.227 495.176 509.638 486.103 517.035 481.02Z"/><path fill="#EBEBEB" d="M541.219 494.802C541.766 494.338 542.522 494.205 543.195 494.455C543.868 494.705 544.354 495.299 544.466 496.008C544.578 496.717 544.299 497.432 543.736 497.877C542.885 498.549 541.653 498.416 540.966 497.577C540.279 496.738 540.392 495.503 541.219 494.802Z"/><path fill="#D8D7D7" d="M531.443 511.598C531.958 511.656 532.544 511.628 532.89 512.045C532.817 512.4 532.222 512.362 531.848 512.403L531.443 511.598Z"/><path fill="#87898B" d="M416.96 299.457C418.16 299.49 420.352 299.659 421.343 300.325C443.14 314.962 459.697 345.473 469.063 369.076C457.592 372.488 448.916 374.77 437.648 379.006C426.606 383.197 413.244 390.275 403.603 393.707L402.866 393.129C398.805 384.073 403.334 337.056 405.984 325.919C407.97 317.576 409.31 304.751 416.96 299.457Z"/><path fill="#171616" d="M589.057 733.342C590.145 739.666 591.261 745.41 587.239 751.142C581.304 759.601 567.029 762.59 557.4 763.837C543.332 765.659 524.888 767.565 510.701 766.081C487.949 763.319 464.934 754.12 446.691 740.298C433.343 730.184 421.555 717.662 413.493 702.973C412.393 700.97 408.96 695.397 410.349 693.43C411.715 694.552 415.892 702.807 417.902 705.696C421.148 710.334 424.705 714.747 428.548 718.904C450.046 742.383 481.216 758.455 512.998 762.027C521.529 762.985 534.983 762.447 544.063 761.357C555.361 760.001 574.989 758.885 582.875 750.019C586.153 746.334 586.237 741.531 585.706 736.948C585.652 736.493 585.594 736.038 585.532 735.584C581.757 736.726 573.204 739.386 569.538 737.832L569.084 736.96C570.487 734.245 586.201 735.619 588.872 727.626C591.241 720.538 592.078 715.48 586.635 709.79C587.258 708.467 587.996 707.769 589.025 706.688C597.195 714.75 596.944 725.176 589.057 733.342Z"/><path fill="#171616" d="M523.716 694.149C504.45 691.732 495.013 688.775 481.024 673.693C476.537 668.856 464.006 649.356 464.393 643.416L465.267 642.854C466.652 643.588 468.669 648.755 469.735 650.704C473.767 658.193 478.724 665.145 484.491 671.396C494.407 682.026 506.333 689.121 521.185 689.492L521.906 689.504C529.278 681.682 550.961 652.197 559.919 674.51C561.116 677.492 560.501 683.331 559.927 686.602C568.764 685.997 581.794 684.638 587.245 693.539C589.413 697.079 590.23 701.571 589.167 705.62L589.025 706.688C587.996 707.769 587.258 708.467 586.635 709.79L586.058 709.81C584.699 710.548 583.252 711.111 581.752 711.485C577.408 712.61 572.981 713.043 569.021 710.737L568.943 710.133C574.128 706.962 587.13 712.386 585.36 699.647C583.665 687.439 564.591 690.6 556.162 691.516C554.985 693.109 554.445 694.426 552.397 694.477L551.731 693.802C552.914 689.541 557.02 685.518 556.757 681.281C555.097 654.59 529.936 686.606 523.716 694.149Z"/><path fill="#27282A" d="M586.058 709.81C586.818 707.954 586.855 707.559 588.418 706.266L589.167 705.62L589.025 706.688C587.996 707.769 587.258 708.467 586.635 709.79L586.058 709.81Z"/><path fill="#171616" d="M609.192 564.062C612.33 563.871 615.134 563.763 618.22 564.24C627.211 565.628 635.641 571.207 635.412 581.178C635.182 591.229 622.753 589.184 619.505 582.246C618.693 580.512 618.912 579.463 619.483 577.736L620.277 577.349C621.971 578.657 622.607 581.919 623.765 582.854C632.514 589.912 635.34 576.284 626.673 571.084C618.867 566.4 603.749 564.195 599.208 574.827C595.309 583.956 591.763 593.107 579.967 586.627C576.634 584.694 576.113 578.147 575.621 574.419C572.566 571.062 571.644 570.383 567.317 569.043C560.731 568.055 555.363 569.5 549.787 573.084C545.089 576.105 541.032 581.516 545.174 586.761C549.99 588.439 551.968 580.544 555 579.626C555.077 579.788 555.17 579.943 555.232 580.111C555.78 581.6 555.408 583.235 554.731 584.617C553.579 586.967 551.302 588.87 548.815 589.665C546.771 590.318 544.797 590.168 542.944 589.053C541.296 588.06 540.337 586.068 540.036 584.234C539.431 580.534 541.408 577.025 543.642 574.23C547.959 568.828 554.973 565.758 561.778 565.133C581.275 563.344 577.111 580.045 583.19 584.3C584.543 585.247 585.916 585.501 587.505 585.132C594.83 583.431 593.314 576.521 596.558 571.59C599.395 567.279 603.697 565.31 608.557 564.202L609.192 564.062Z"/><path fill="#EBEBEB" d="M213.436 696.002C216.695 677.632 226.682 655.121 237.035 638.596C253.173 613.714 275.609 584.899 304.222 574.57C311.322 572.837 312.284 576.935 311.614 582.453C307.192 618.841 298.204 652.863 302.455 689.931C303.786 723.53 319.028 758.169 342.516 782.214C342.862 796.646 343.883 805.869 347.399 819.941C352.115 839.329 360.763 851.226 372.404 866.483C349.677 867.38 319.427 864.328 299.293 853.336C275.154 844.003 249.955 822.43 235.407 801.108C212.441 767.447 206.398 735.425 213.436 696.002Z"/><path fill="#87898B" d="M213.436 696.002C216.695 677.632 226.682 655.121 237.035 638.596C253.173 613.714 275.609 584.899 304.222 574.57C311.322 572.837 312.284 576.935 311.614 582.453C307.192 618.841 298.204 652.863 302.455 689.931L301.61 689.228C296.923 692.482 285.174 714.044 281.461 719.058C271.073 709.929 263.117 695.928 258.346 683.065C247.336 697.177 245.026 705.243 241.206 722.931C227.176 713.542 223.972 706.203 213.436 696.002Z"/><path fill="#D8D7D7" d="M347.399 819.941C352.115 839.329 360.763 851.226 372.404 866.483C349.677 867.38 319.427 864.328 299.293 853.336C302.439 851.333 311.181 851.333 315.298 850.208C323.23 848.042 330.65 843.488 336.344 837.641C340.062 833.824 346.45 824.99 347.399 819.941Z"/><path fill="#EBEBEB" d="M670.036 756.179C678.744 760.448 688.499 773.608 693.764 781.484C683.302 790.169 685.119 802.194 682.228 814.105C680.044 823.101 677.099 831.941 674.336 840.765C673.405 843.739 670.955 848.446 671.845 851.209L672.708 851.445C675.557 848.765 684.983 819.594 686.609 813.98C689.562 803.536 688.466 785.144 701.708 781.588C703.808 781.024 708.075 781.578 709.963 782.813C716.709 787.226 707.573 799.614 711.365 803.106L712.266 802.813C715.453 797.513 716.788 788.395 713.82 782.746C724.425 777.594 735.496 779.04 735.649 793.275C735.693 797.377 733.425 799.206 732.709 803.016C733.778 804.298 733.121 803.893 734.749 804.268C738.321 802.124 738.729 791.196 738.638 787.34C748.075 793.481 748.681 801.097 746.088 811.272C742.98 820.495 737.516 824.497 733.295 832.622C731.995 835.124 730.627 841.987 729.721 844.987C725.704 858.285 722.273 879.648 711.014 888.728C700.404 897.285 685.125 894.34 674.61 887.463C669.344 884.266 663.207 877.622 656.941 876.416C641.949 873.533 625.703 872.834 610.554 870.995C617.761 865.753 624.318 861.235 630.784 854.965C658.27 828.312 669.178 793.536 670.036 756.179Z"/><path fill="#EBEBEB" d="M637.809 634.319C639.75 635.146 643.295 637.679 645.231 639.075C665.284 653.535 695.823 679.117 693.15 706.293C690.731 730.878 660.153 745.841 638.017 743.385C633.576 742.892 628.342 740.67 625.698 736.729C618.507 725.222 632.635 731.024 638.171 728.523C639.151 726.929 638.885 727.828 638.555 725.632L637.769 725.14C633.469 726.875 631.494 726.597 626.896 726.533C615.483 725.187 612.486 713.281 617.875 704.156C623.238 705.353 629.75 706.264 634.257 702.078L634.068 701.502C632.749 700.979 627.575 702.008 625.116 702.055C612.848 702.288 615.174 689.307 622.723 684.567C629.579 680.261 637.818 680.803 645.928 682.778C641.534 678.215 637.415 676.503 634.942 669.749C633.368 665.447 636.567 658.623 640.924 658.199C651.873 657.134 661.375 667.268 669.569 672.769L670.266 672.285C671.389 666.336 651.954 656.584 647.225 654.406C644.328 646.887 641.515 641.38 637.809 634.319Z"/><path fill="#EBEBEB" d="M650.711 437.587C658.528 436.802 662.126 439.387 665.305 446.638C669.221 455.572 666.016 464.825 657.109 468.602C644.928 469.876 638.251 459.273 641.182 447.803C642.571 442.365 645.937 440.077 650.711 437.587Z"/><path fill="#83B6DC" d="M620.235 419.895C623.717 420.684 628.063 422.115 631.56 423.167C626.071 426.064 621.423 430.33 618.066 435.55C610.815 447.012 610.925 458.996 613.844 471.763C609.797 472.543 610.498 472.894 607.027 474.508C599.099 456.067 602.565 431.496 620.235 419.895Z"/><path fill="#EBEBEB" d="M606.196 505.674C624.613 502.77 632.494 513.227 608.616 517.906C586.403 520.425 584.692 508.639 606.196 505.674Z"/><path fill="#EBEBEB" d="M607.027 474.508C610.498 472.894 609.797 472.543 613.844 471.763C619.709 486.64 621.867 489.396 635.691 497.893C634.3 497.558 632.904 497.244 631.504 496.949C620.428 494.56 611.943 484.082 607.027 474.508Z"/><path fill="#EBEBEB" d="M624.822 472.857C628.083 472.04 631.391 474.009 632.228 477.264C633.066 480.519 631.119 483.839 627.87 484.698C624.59 485.565 621.232 483.596 620.387 480.311C619.541 477.026 621.532 473.681 624.822 472.857Z"/><path fill="#EBEBEB" d="M643.26 481.725C644.288 481.232 645.506 481.362 646.407 482.06C647.308 482.759 647.736 483.906 647.514 485.025C647.292 486.143 646.457 487.039 645.358 487.341C643.856 487.752 642.288 486.95 641.743 485.492C641.198 484.033 641.856 482.399 643.26 481.725Z"/><path fill="#EBEBEB" d="M709.129 78.2733C751.313 75.0924 788.135 106.606 791.506 148.776C794.878 190.947 763.53 227.91 721.376 231.471C678.951 235.055 641.699 203.463 638.307 161.023C634.914 118.584 666.674 81.4745 709.129 78.2733Z"/><path fill="#171616" d="M715.68 113.233C732.826 113.295 745.431 116.068 759.249 126.875C765.326 131.628 771.063 138.981 771.66 146.889C772.207 154.115 769.289 158.129 764.97 163.246C782.219 179.351 758.566 191.056 743.931 192.739C733.479 193.941 725.282 195.384 714.475 195.553C698.92 195.719 676.237 195.515 663.243 185.602C655.524 179.712 659.028 170.706 664.695 164.742C654.262 155.017 657.211 142.465 666.274 133.038C679.836 118.932 696.528 113.835 715.68 113.233Z"/><path fill="#EBEBEB" d="M712.922 117.212C728.168 116.173 744.727 120.1 756.841 129.774C765.482 136.674 772.743 149.541 763.374 158.959C752.99 169.398 732.126 170.426 718.339 171.015C704.565 171.345 680.927 171.554 669.017 163.701C665.978 161.495 661.858 156.22 662.035 152.215C663.077 128.699 695.073 118.286 712.922 117.212Z"/><path fill="#171616" d="M712.759 119.578C713.98 119.85 715.791 119.76 715.685 121.48C715.487 124.667 717.66 135.988 715.797 138.067L715.371 138.567C711.514 137.542 713.147 130.24 712.329 127C711.785 124.849 712.249 121.786 712.759 119.578Z"/><path fill="#171616" d="M730.406 120.638C734.714 122.066 733.161 126.986 734.446 131.254C735.121 133.494 735.391 136.683 734.233 138.784C729.743 137.763 731.571 132.265 730.297 128.122C729.539 125.659 729.259 122.98 730.406 120.638Z"/><path fill="#171616" d="M692.372 122.695C692.731 122.783 694.711 123.143 694.756 123.783C695.058 128.145 695.42 136.045 693.886 140.103C688.548 137.851 692.014 133.949 691.348 128.747C691.066 126.542 691.304 124.639 692.372 122.695Z"/><path fill="#EBEBEB" d="M761.832 165.98C764.117 166.211 765.254 168.629 765.993 170.461C769.553 179.281 759.475 185.069 752.118 186.968C729.237 192.877 689.042 195.567 668.3 184.478C663.592 181.471 660.465 174.809 665.037 169.656C667.026 167.415 670.512 168.861 672.767 169.738C675.892 170.952 679.985 172.598 683.393 173.123C708.658 176.17 738.319 176.515 761.832 165.98Z"/><path fill="#EBEBEB" d="M650.543 222.744C658.345 222.663 656.217 231.593 654.217 236.432C648.797 249.549 628.771 227.934 623.828 239.405C623.676 246.127 632.74 252.655 630.722 259.656C627.03 272.466 599.764 260.89 596.336 273.019C596.916 280.157 613.51 282.278 600.739 293.276C600.086 293.479 599.405 293.606 598.733 293.755C597.176 293.06 597.754 293.598 596.956 292.066C597.225 289.806 598.345 289.261 599.64 287.081C599.154 281.775 588.454 279.397 590.338 272.643C594.451 257.918 614.289 264.381 623.454 259.933C631.294 256.129 609.418 240.58 622.717 232.425C633.538 225.789 642.137 239.047 648.877 234.725C650.84 231.378 650.163 226.918 650.543 222.744Z"/></svg>