<?xml version="1.0" encoding="utf-8" ?><svg xmlns="http://www.w3.org/2000/svg" xmlns:xlink="http://www.w3.org/1999/xlink" width="1024" height="1024" viewBox="0 0 1024 1024"><path fill="#131112" d="M456.861 358.685C478.205 355.879 497.788 370.347 505.682 389.37C513.641 408.55 515.319 440.089 509.233 460.016C511.502 459.072 513.805 458.212 516.138 457.438C528.518 453.253 540.374 450.085 553.247 447.4C641.135 429.073 749.403 465.393 777.607 558.195C779.023 562.854 780.249 567.771 781.808 572.406C801.175 583.794 817.132 588.597 840.386 587.286C867.868 585.736 895.18 573.266 911.088 549.996C915.32 543.806 917.004 534.978 921.32 528.823C921.731 528.237 922.447 528.428 923.126 528.402C923.649 528.687 924.861 529.369 925.214 529.904C941.512 554.614 955.747 593.736 936.94 620.774C934.412 624.409 929.53 628.585 926.19 631.609C924.842 640.269 924.081 646.024 920.113 654.101C907.883 678.995 880.462 683.79 855.526 686.037C863.275 694.355 859.278 699.264 849.018 699.855C829.695 700.969 809.286 698.206 793.017 687.017C787.088 682.939 782.122 678.431 776.738 673.679C768.843 684.475 766.011 690.418 754.091 698.875C746.214 704.476 737.506 708.807 728.287 711.711C714.672 716.032 702.709 716.2 689.13 718.675C655.331 724.837 610.352 741.498 586.205 706.596C569.747 705.742 559.333 707.166 542.989 708.948C541.02 710.455 538.954 712.275 537.039 713.886C530.711 719.214 523.609 723.547 515.977 726.739C492.498 736.545 464.916 735.48 440.228 740.558C421.933 744.244 406.851 754.765 387.846 756.348C365.095 758.243 343.151 752.152 333.835 729.656C311.668 733.131 289.712 729.594 268.096 723.88C262.769 722.471 256.334 718.327 250.834 718.356C236.16 718.433 220.053 719.069 205.594 721.699C188.664 724.779 172.384 731.507 154.723 729.319C140.09 727.507 123.266 718.801 114.084 707.101C107.901 699.222 105.734 690.33 107.055 680.44C108.055 673.17 111.962 666.618 117.882 662.281C131.545 652.172 156.125 653.356 172.171 655.49C168.905 644.92 169.873 639.469 173.133 629.095C153.217 624.678 120.224 606.647 131.135 580.022C134.599 571.567 147.03 567.049 155.325 564.676C148.548 559.318 135.279 546.39 140.481 535.601C141.671 533.133 148.332 533.182 151.101 532.416C168.222 527.679 180.645 514.773 190.434 500.556C174.229 476.202 168.859 452.583 171.342 424.097C175.93 371.463 219.188 353.899 259.746 386.724C268.621 393.907 273.524 398.962 280.673 407.754C298.493 401.984 312.384 407 329.799 409.78C331.256 410.013 338.438 407.644 341.108 407.411C354.899 406.211 365.185 412.669 375.397 421.235C394.541 392.676 421.016 363.763 456.861 358.685Z"/><path fill="#F4F4F3" d="M378.664 424.171C396.464 393.438 444.454 348.314 481.981 368.154C496.79 375.982 502.526 391.314 506.937 406.254C503.184 402.008 500.797 398.838 496.225 395.363C478.559 381.936 458.153 395.139 447.293 410.561C440.971 419.538 431.043 436.606 430.536 448.275C430.487 449.397 431.791 449.921 432.596 450.323C442.144 428.929 447.252 405.027 471.554 395.093C485.868 389.243 502.47 400.573 506.384 414.46C512.295 435.436 505.65 461.703 497.273 481.402C495.599 485.168 492.029 490.714 490.086 494.471C491.081 497.257 495.794 503.508 497.623 506.053C509.826 523.035 523.107 532.647 542.43 539.92C538.065 547.465 533.185 553.176 524.881 556.484C522.349 557.493 516.153 559.32 515.738 562.069C518.049 565.334 539.869 567.548 546.071 576.682C558.498 594.982 537.479 611.954 521.389 616.814C517.359 618.032 508.557 620.055 505.859 622.21C504.81 628.171 525.237 633.157 509.375 645.877C485.721 665.387 452.45 658.401 424.415 663.526C412.138 664.421 398.896 674.035 388.209 676.911C370.254 681.742 354.978 681.902 341.204 697.132C333.203 705.979 331.683 712.29 332.072 724.343C298.628 731.711 238.939 717.738 221.178 685.305C218.949 681.235 216.9 667.242 213.806 665.723L212.996 666.551C212.064 670.154 213.434 674.188 214.325 677.789C197.323 675.279 178.204 667.278 174.171 648.494C172.428 640.372 175.375 633.999 177.934 626.485C173.737 624.756 168.952 623.98 164.693 622.395C154.162 618.476 144.778 612.779 138.295 603.476C128.03 588.748 135.647 574.532 151.765 570.206C155.757 569.121 162.146 568.346 165.525 566.059L165.57 565.264C163.105 562.62 157.968 561.181 154.744 558.751C146.617 552.626 145.106 547.92 143.415 538.774C159.621 536.298 179.571 524.42 188.353 511.197C202.382 489.587 214.649 465.225 238.839 453.175C241.681 451.76 257.668 445.021 257.711 442.663C254.762 441.417 251.14 442.414 248.084 443.058C257.444 430.276 269.694 428.172 284.802 428.382C288.348 428.432 294.066 429.542 295.081 425.487C293.973 420.522 287.294 414.148 283.655 410.276C293.706 408.231 304.178 408.746 314.132 410.628C322.695 412.248 328.171 414.853 336.639 411.927C343.231 409.65 352.907 411.649 359.191 414.642C362.316 416.146 365.283 417.956 368.051 420.045C370.838 422.148 377.44 429.13 379.32 429.572L379.866 428.977C380.165 427.011 379.498 426.092 378.664 424.171Z"/><path fill="#8C8B90" d="M432.596 450.323C442.144 428.929 447.252 405.027 471.554 395.093C485.868 389.243 502.47 400.573 506.384 414.46C512.295 435.436 505.65 461.703 497.273 481.402C495.599 485.168 492.029 490.714 490.086 494.471C489.31 492.913 488.386 491.277 487.433 489.89C480.321 479.544 443.711 451.884 432.596 450.323Z"/><path fill="#131112" d="M281.213 641.154C290.428 640.195 304.229 640.527 311.803 646.058C322.621 653.959 313.372 669.101 303.777 673.23C298.707 675.413 295.769 675.813 290.432 676.639C290.365 683.682 289.767 691.921 296.216 696.624C305.15 703.138 318.845 700.808 324.826 691.432C326.726 688.454 328.105 685.184 330.135 682.297C330.862 681.272 331.403 681.019 332.567 680.954C335.921 685.184 331.4 691.294 328.735 694.655C323.443 701.328 317.439 703.93 309.218 704.81C300.902 705.548 294.819 702.166 288.896 696.789C278.995 702.48 265.454 703.86 256.365 695.32C252.942 692.103 249.422 687.795 253.529 683.622C258.311 683.424 260.942 707.825 286.195 691.698C285.373 685.43 285.254 682.371 285.938 676.085C263.114 669.25 249.137 646.174 281.213 641.154Z"/><path fill="#131112" d="M401.181 590.191C403.588 590.021 405.492 590.424 407.787 591.043C408.007 591.499 408.227 591.954 408.447 592.41C406.313 595.702 401.585 596.394 400.227 600.346C401.867 603.005 405.897 601.08 407.17 605.698C406.56 607.581 407.071 606.801 405.554 608.109C402.274 608.969 400.676 607.543 397.623 605.903C396.955 606.715 396.262 607.506 395.545 608.276C389.721 614.556 381.597 618.204 373.033 618.384C363.102 618.599 356.344 614.628 349.428 608.043C346.935 604.944 338.853 593.309 345.162 590.924C347.042 591.535 348.477 593.659 349.225 595.351C355.097 608.616 366.267 615.543 380.747 611.033C387.7 608.868 391.679 604.528 394.461 597.69C396.459 592.781 395.861 590.95 401.181 590.191Z"/><path fill="#131112" d="M216.69 589.967C226.314 590.588 219.922 602.144 232.087 609.863C236.871 612.942 242.719 613.892 248.231 612.488C265.873 607.886 263.434 591.844 269.383 590.539C274.161 593.043 270.07 601.215 268.246 604.755C262.572 613.344 254.096 619.49 243.305 619.271C233.789 619.077 227.839 614.273 221.557 607.823C219.006 609.258 212.589 611.346 213.227 606.205C214.505 604.651 216.747 603.788 218.607 602.862L218.867 601.798C217.569 596.36 212.117 596.442 212.423 592.693C213.712 591.044 214.693 590.847 216.69 589.967Z"/><path fill="#F4F4F3" d="M588.295 447.712C594.726 447.162 602.353 447.447 608.773 447.707C684.948 450.793 759.108 494.02 776.708 572.674C782.904 597.453 782.819 620.209 779.601 645.297C774.851 682.327 750.715 701.641 715.502 710.098C704.601 712.715 693.076 713.058 682.103 715.165C655.703 720.233 626.767 730.285 601.578 715.293C588.361 707.445 582.741 689.612 592.214 676.658C607.385 655.913 638.819 658.081 661.731 658.196C662.842 658.202 664.18 657.245 664.769 656.293C662.616 651.026 631.026 649.61 623.018 609.14C619.327 589.942 623.365 570.064 634.256 553.829C641.866 542.498 653.165 534.23 665.976 529.628C670.041 528.167 680.65 528.524 682.867 525.156L682.463 524.34C680.618 523.402 678.882 522.958 676.793 523.238C659.745 525.483 644.909 533.832 633.977 547.02C611.012 574.724 610.906 623.856 640.214 647.432C642.733 649.406 645.854 651.456 648.522 653.295C627.363 654.059 600.434 655.119 587.281 674.987C581.444 683.803 581.966 692.194 584.097 702.029C572.622 700.634 558.586 702.104 547.076 703.66C555.652 689.434 558.205 681.622 554.407 664.581C553.965 662.595 553.851 662.384 552.417 661.503L551.404 661.772C550.029 665.801 554.122 677.441 551.238 686.829C546.866 701.058 536.188 711.906 523.434 718.954C496.541 733.814 463.165 731.071 434.173 737.452C419.941 740.585 405.317 749.776 389.482 751.361C379.979 752.313 374.68 752.568 365.094 749.935C354.684 747.075 345.596 741.867 340.169 732.217C336.734 726.109 336.016 717.423 338.294 710.781C342.758 697.764 356.795 689.59 369.389 686.147C375.9 684.367 383.333 683.766 389.566 681.11C401.45 676.046 413.133 669.061 426.046 666.931C450.984 662.819 478.69 667.288 501.886 655.245C509.23 651.432 516.913 645.989 519.516 637.776L519.732 637.074C518.041 630.841 515.576 628.711 511.061 624.372C528.951 619.658 546.617 613.74 552.713 594.283C559.001 574.215 541.247 565.624 525.572 561.254C531.189 557.743 557.914 540.074 540.96 534.86C521.21 528.786 505.027 511.836 494.97 494.368C501.946 483.479 504.878 478.05 507.876 465.422C537.851 455.167 556.487 449.649 588.295 447.712Z"/><path fill="#131112" d="M620.316 689.068C628.477 688.635 635.368 691.719 640.72 697.968C645.796 703.893 645.15 708.417 638.885 712.822C625.512 714.713 606.97 700.988 620.316 689.068Z"/><path fill="#131112" d="M372.432 719.609C383.696 719.673 400.564 737.667 383.113 743.278C374.743 742.56 366.866 737.026 364.244 729.026C362.152 722.644 367.778 720.663 372.432 719.609Z"/><path fill="#131112" d="M600.791 675.117C601.495 675.199 602.197 675.299 602.897 675.417C609.676 676.597 619.137 683.045 609.039 688.591C601.493 688.45 589.718 680.309 600.791 675.117Z"/><path fill="#131112" d="M342.369 714.018C349.312 714.677 361.388 717.822 352.519 726.336C346.017 726.776 334.558 721.506 342.369 714.018Z"/><path fill="#131112" d="M360.441 698.975C366.901 699.846 380.691 702.881 371.375 711.345C368.179 711.503 361.479 708.767 359.338 706.389C356.292 703.005 357.609 701.333 360.441 698.975Z"/><path fill="#131112" d="M595.707 693.361C601.597 693.944 611.789 698.622 605.414 705.745C599.051 705.204 588.071 700.807 595.707 693.361Z"/><path fill="#131112" d="M620.431 670.433C627.498 670.57 633.541 672.782 632.211 680.809C626.227 680.056 617.948 678.182 620.431 670.433Z"/><path fill="#131112" d="M349.28 736.492C354.338 736.218 362.823 738.075 360.837 744.885C358.581 744.963 356.327 744.698 354.151 744.099C349.873 742.924 347.499 741.057 349.28 736.492Z"/><path fill="#131112" d="M605.452 710.365C611.268 710.774 616.3 711.13 615.768 718.233C615.186 718.252 614.602 718.252 614.02 718.232C608.278 718.004 605.168 716.435 605.452 710.365Z"/><path fill="#F4F4F3" d="M923.629 535.779C938.336 559.483 949.407 592.893 932.668 617.943C929.102 623.28 921.904 627.574 921.306 634.085C915.502 665.313 894.586 677.628 863.933 680.457C856.867 681.11 852.109 679.463 844.504 681.074C847.78 686.408 851.758 688.304 854.882 693.528C849.986 695.24 845.557 695.581 840.429 695.479C814.785 694.971 796.423 687.281 778.749 668.885C789.784 639.086 787.624 609.471 783.198 578.924C815.668 595.868 854.102 597.598 886.365 578.991C890.127 576.184 894.148 573.876 897.861 571.056C911.449 560.733 917.085 550.94 923.629 535.779Z"/><path fill="#8C8B90" d="M923.629 535.779C938.336 559.483 949.407 592.893 932.668 617.943C929.102 623.28 921.904 627.574 921.306 634.085C906.978 642.804 894.772 647.138 877.635 645.74C864.778 644.691 853.385 640.498 844.933 630.536C866.444 627.787 895.819 622.205 891.711 592.823C890.966 587.492 888.991 583.623 886.365 578.991C890.127 576.184 894.148 573.876 897.861 571.056C911.449 560.733 917.085 550.94 923.629 535.779Z"/><path fill="#F4F4F3" d="M146.007 658.197C153.992 656.895 166.378 658.882 174.515 660.215C175.612 661.488 176.727 662.747 177.859 663.989C188.697 675.799 199.724 680.353 215.523 681.089C222.153 697.212 229.765 702.604 243.141 712.909C228.917 714.851 215.792 715.119 200.519 717.638C190.398 719.213 180.452 722.741 169.916 724.513C148.144 728.173 114.24 712.584 111.585 688.308C110.871 681.931 112.744 675.534 116.784 670.548C124.088 661.476 135.153 659.394 146.007 658.197Z"/><path fill="#131112" d="M147.149 687.082C156.313 687.33 174.624 694.527 172.235 707.36C171.815 709.618 167.677 711.732 165.647 712.579C157.44 711.751 150.751 709.151 144.994 703.03C138.81 696.454 137.065 690.393 147.149 687.082Z"/><path fill="#131112" d="M132.428 666.504C137.961 666.342 143.633 667.262 147.906 670.96C151.692 674.238 150.787 677.38 147.393 680.313C140.609 680.364 122.965 675.585 132.428 666.504Z"/><path fill="#131112" d="M118.129 685.461C124.598 685.928 136.595 689.187 130.155 697.76C123.952 697.509 109.561 693.659 118.129 685.461Z"/><path fill="#131112" d="M126.219 704.971C131.833 704.906 141.488 705.471 138.695 713.524C133.036 713.548 124.362 712.605 126.219 704.971Z"/><path fill="#8C8B90" d="M197.327 402.599C222.362 401.421 233.676 428.384 240.835 447.897C224.044 455.771 213.892 466.659 202.926 481.051C199.686 485.64 195.807 492.167 192.718 497.029C185.174 484.56 180.913 475.801 178.2 461.456C173.971 439.099 170.147 411.197 197.327 402.599Z"/><path fill="#F4F4F3" d="M212.793 374.647C245.491 371.186 270.48 400.717 289.137 423.573C272.328 424.867 251.2 425.477 244.107 444.037L243.863 444.69L243.418 444.614L242.991 443.305C238.641 428.864 230.932 415.222 218.863 405.944C201.783 392.813 188.934 398.61 177.329 413.839C182.421 393.896 190.966 378.152 212.793 374.647Z"/><path fill="#131112" d="M458.577 246.744C468.657 250.135 457.162 263.168 454.244 268.231C447.286 280.308 435.711 293.179 429.996 305.652C436.442 303.379 468.996 293.749 473.942 296.363C474.931 296.886 475.436 297.717 475.81 298.733C476.514 300.646 476.664 302.819 475.628 304.65C474.969 305.817 474.019 306.521 472.79 306.995C466.586 309.384 459.467 310.733 453.023 312.464L415.248 322.538C414.217 322.555 412.691 322.65 411.885 322.17C410.484 321.326 409.481 319.954 409.103 318.362C408.121 314.242 411.719 308.442 413.807 304.998C422.175 291.195 431.47 277.985 440.096 264.339C429.459 267.526 419.877 270.097 408.199 272.854C399.28 276.093 392.818 272.849 396.541 263.418C397.459 261.09 427.439 254.198 430.361 253.582C439.113 251.739 450.569 247.339 458.577 246.744Z"/><path fill="#131112" d="M382.06 297.093C383.856 296.975 383.913 296.85 385.58 297.657C386.157 298.367 386.521 298.65 386.729 299.57C388.224 306.17 368.82 332.194 364.32 338.89C368.241 337.633 394.04 328.57 396.345 334.61C398.761 340.945 384.427 343.067 379.598 344.318C371.201 346.581 362.764 348.692 354.291 350.651C353.252 350.712 351.506 350.817 350.517 350.39C349.332 349.878 348.702 349.207 348.318 347.964C346.742 342.854 367.569 315.316 371.222 309.073C367.015 310.446 334.636 322.389 341.141 309.263C345.039 306.029 374.851 298.973 382.06 297.093Z"/><path fill="#131112" d="M327.463 334.134C329.823 334.529 329.932 334.458 330.772 336.508C330.482 343.406 317.223 358.773 313.637 366.977C319.621 365.367 329.992 362.152 336.306 361.844C337.55 361.783 338.167 362.868 338.801 363.73C338.827 364.516 338.962 364.855 338.531 365.572C336.079 369.655 310.983 375.468 305.106 377.151C304.496 377.277 303.902 377.249 303.263 377.267C297.007 372.415 314.485 350.313 317.834 344.511C312.236 346.351 297.188 352.847 293.383 347.746C292.875 343.674 297.448 342.473 300.676 341.606C309.438 339.255 318.626 335.959 327.463 334.134Z"/></svg>