<?xml version="1.0" encoding="utf-8" ?><svg xmlns="http://www.w3.org/2000/svg" xmlns:xlink="http://www.w3.org/1999/xlink" width="1024" height="1024" viewBox="0 0 1024 1024"><path fill="#7FC0E5" d="M0 0L1024 0L1024 1024L0 1024L0 0Z"/><path d="M264.814 375.235C265.648 370.22 265.921 365.208 266.86 360.034C271.586 334.918 278.326 310.224 287.014 286.189C290.684 276.218 294.726 266.175 298.784 256.353C300.473 252.266 302.696 248.365 304.11 244.173C306.279 237.739 307.091 230.783 309.088 224.237C311.649 215.839 314.364 207.146 317.857 199.089C320.325 193.397 323.383 187.974 325.946 182.326C329.054 175.477 331.664 168.579 335.492 162.055C345.628 144.783 375.944 95.176 395.863 90.5656C398.905 89.8616 401.614 90.405 404.167 92.1879C416.582 100.856 440.458 158.105 445.93 174.032C448.575 181.533 450.572 189.247 451.899 197.089C462.004 198.085 472.048 199.122 481.995 201.192C493.87 203.665 505.466 207.231 517.285 210.083C523.541 204.976 529.119 199.178 535.219 193.844C569.15 164.17 609.426 139.265 651.936 124.01C656.72 122.293 664.752 121.748 669.846 121.378C672.372 122.643 675.58 123.891 677.314 126.204C689.337 142.246 691.207 215.883 688.98 237.238C686.568 260.372 680.625 283.136 677.648 306.171C682.26 303.714 686.859 301.452 691.728 299.534C698.339 296.93 734.548 284.35 739.385 286.064C741.138 286.685 742.815 290.057 743.698 291.672C745.308 294.62 748.844 300.752 747.525 304.085C747.005 305.399 745.931 306.586 744.721 307.305C741.576 309.171 737.36 310.215 733.897 311.428C722.175 315.536 710.223 318.942 698.445 322.917C694.127 324.375 689.284 325.53 685.239 327.618C689.191 330.878 747.058 325.67 755.807 332.574C757.982 334.291 761.348 350.952 756.687 352.47C747.397 355.495 731.11 353.044 721.48 351.364C725.802 358.517 726.662 364.315 726.633 372.5C737.863 371.804 744.081 380.628 744.579 391.166C745.097 402.132 738.249 416.981 729.774 424.019C720.468 431.746 710.091 440.1 700.029 446.81C695.362 449.846 687.663 452.416 684.215 456.191C682.896 460.586 691.276 462.84 693.875 465.448C698.975 470.564 708.493 480.136 711.369 486.622C711.275 490.405 707.321 491.68 704.618 493.637C695.041 500.57 685.219 502.912 673.912 505.536C676.96 507.605 681.137 510.069 683.179 513.003C683.321 513.986 683.621 515.037 682.617 515.837C665.228 529.675 649.082 534.876 627.134 536.004C620.796 545.502 608.915 558.134 603.15 568.339C601.253 573.775 601.467 581.69 600.165 587.128C592.165 620.534 593.588 649.415 606.651 681.754C618.37 679.311 640.747 669.381 651.329 662.782C665.639 653.858 682.792 639.065 694.051 626.652C702.099 617.78 710.602 604.971 718.191 595.366C721.267 591.358 724.386 584.376 727.192 579.84C733.543 569.573 739.573 559.165 746.393 549.185C755.172 535.341 764.188 520.768 775.755 508.968C792.146 492.797 811.519 474.407 832.316 464.201C848.297 456.358 870.588 446.773 888.007 443.371C897.202 441.575 914.952 440.701 924.397 440.86C943.674 441.825 963.733 447.213 981.609 454.353C986.295 456.224 1000.53 465.419 1000.32 470.972C1000.22 473.74 990.371 477.929 987.948 479.012C981.689 481.807 976.976 485.578 971.515 489.607C968.868 491.603 964.156 494.076 961.914 495.989C953.488 503.175 944.874 512.883 937.472 521.175C924.734 535.444 915.145 551.501 906.748 568.589C905.117 571.91 902.631 576.915 901.431 580.337C899.898 584.266 899.257 589.348 897.669 593.153C894.129 601.635 892.199 610.782 889.017 619.271C886.799 625.191 882.899 631.336 880.046 637.053C876.706 643.747 873.008 650.401 869.28 656.878C863.931 665.667 857.161 673.505 850.83 681.48C836.151 699.969 823.832 712.87 803.788 725.704L804.414 727.608L804.905 727.565L805.726 727.502C808.706 727.254 809.726 726.636 811.754 728.926C812.815 734.77 794.586 749.69 789.813 752.99C770.029 766.452 742.665 776.214 719.378 781.461C699.662 785.904 661.379 785.963 642.383 780.26C645.603 793.623 648.988 804.311 649.418 818.24C649.596 824 650.868 831.44 651.384 837.424C662.667 845.021 670.956 862.222 673.48 875.042C675.923 887.449 676.256 891.282 684.106 901.368C689.939 909.695 694.406 922.017 693.239 932.241C690.64 954.997 676.787 964.776 655.024 961.722C647.043 971.208 638.485 972.903 626.536 972.496C618.509 972.223 611.277 968.875 605.937 962.847C600.077 966.091 594.618 967.161 587.964 965.701C556.772 958.854 558.335 924.445 574.889 903.726C572.197 900.137 570.862 890.978 566.518 887.151C559.989 880.818 549.835 877.486 542.648 872.428C527.041 861.444 513.042 844.454 503.938 828.095C483.403 831.557 471.707 830.959 451.46 827.047C442.233 836.005 428.471 842.318 418.987 850.462C413.621 855.07 417.689 872.197 417.748 878.718C417.822 886.815 416.646 895.751 410.272 901.572C400.764 910.995 394.768 912.693 383.74 917.68C351.676 932.18 323.546 931.006 289.339 931.566L285.219 925.934C280.972 926.232 275.963 926.625 272.142 924.462C263.514 919.577 256.187 917.173 252.627 907.215C249.131 897.114 250.575 884.725 254.531 875.186C261.083 859.387 272.92 862.504 284.187 856.386C292.404 851.925 294.243 848.151 304.562 844.298C286.743 817.911 289.376 803.897 300.917 776.06C295.901 773.416 292.906 768.658 290.657 768.112C289.87 768.26 289.078 768.387 288.284 768.491C284.969 768.907 281.318 766.459 278.731 764.442C263.527 752.587 263.242 727.29 274.15 712.597C276.028 710.067 279.608 706.697 280.347 703.632C282.862 693.201 284.114 682.443 286.937 672.062C299.899 628.114 319.087 571.477 348.435 535.912C321.715 528.488 309.77 524.212 286.444 508.829C260.227 491.54 250.939 483.256 241.765 452.987C240.093 455.759 237.674 460.599 233.917 460.389C231.18 459.05 230.909 453.804 230.522 451.036C228.796 438.678 231.042 426.722 235.629 415.22C233.217 416.529 227.55 420.54 225.3 419.441C225.031 418.991 224.596 418.191 224.626 417.66C225.716 398.481 246.252 378 264.814 375.235Z"/><path fill="#80B5DE" d="M803.788 725.704L804.414 727.608C803.949 727.657 801.786 728.093 801.43 727.7C801.469 727.15 803.348 726.023 803.788 725.704Z"/><path fill="#F1F1F0" d="M394.299 224.179C395.952 223.965 397.615 223.85 399.282 223.832C421.426 223.671 442.262 223.975 463.972 228.852C470.328 230.28 477.929 230.675 484.16 232.493C521.303 243.331 557.172 258.116 589.334 279.843C611.073 295.145 632.232 317.1 650.968 335.806C638.547 342.129 634.053 348.768 629.202 361.314C627.708 362.314 626.275 363.401 624.908 364.569C614.177 373.874 611.167 384.826 610.206 398.306C607.85 400.256 605.037 402.099 602.339 403.87C569.324 425.538 545.191 459.159 523.047 491.228C519.717 496.05 503.11 525.787 504.05 530.034L504.915 530.162C507.898 526.413 510.615 519.938 513.274 515.853C518.702 507.512 523.992 497.693 529.423 489.583C534.178 482.263 540.479 475.471 545.406 468.355C563.762 441.844 586.793 423.186 610.991 402.125C611.459 403.961 611.772 406.189 613.481 407.122C614.181 406.604 614.785 406.322 614.72 405.26C613.687 388.324 617.102 373.885 632.89 364.257C635.409 359.068 637.041 353.623 641.298 349.397C647.763 342.98 657.324 336.491 666.75 336.409C670.553 336.376 674.617 337.548 677.102 340.286C684.3 348.219 680.709 353.896 680.257 363.141C680.182 364.668 680.335 364.548 681.057 365.199L682.206 364.401C686.112 357.56 685.833 351.092 684.311 343.8C687.552 343.074 690.85 342.634 694.167 342.484C706.79 341.978 715.358 348.385 719.486 360.046C721.2 364.89 721.116 368.817 721.294 373.854C717.695 375.747 704.986 382.253 706.607 387.398C707.95 387.387 712.784 383.161 715.054 381.789C717.136 380.556 719.343 379.547 721.638 378.779C746.051 370.44 740.928 404.437 731.04 415.143C725.842 420.77 721.732 424.244 715.353 428.648C709.534 432.666 704.258 437.257 698.198 440.931C695.148 442.971 686.061 447.581 684.15 450.064C675.565 461.216 666.923 471.983 658.648 483.39L616.063 542.452C604.96 557.573 592.577 571.466 582.124 587.001C579.696 590.61 573.402 597.135 574.394 601.459C575.594 601.28 576.417 600.483 577.134 599.49C583.703 590.382 590.534 582.059 597.944 573.613C593.17 592.168 587.219 624.497 590.042 643.029C591.79 654.509 603.229 690.908 609.106 701.307C629.761 737.852 637.117 777.228 644.608 817.997C645.804 824.503 647.232 831.051 647.584 837.614C648.927 839.775 653.779 844.759 655.823 847.595C662.994 857.542 667.081 866.475 669.27 878.565C670.048 882.861 671.091 888.601 672.503 892.581C673.487 895.356 677.104 900.398 678.985 902.89C685.477 911.494 689.407 922.508 687.779 933.353C686.603 941.184 683.088 949.488 676.347 954.185C669.644 958.856 664.51 957.958 657.117 956.829C657.707 955.354 658.284 953.873 658.847 952.388C662.015 944.004 661.15 933.017 657.691 924.787C656.795 922.656 653.438 916.23 651.533 915.507C650.203 916.937 655.461 926.552 655.931 930.252C657.746 944.535 656.843 957.836 643.263 965.316C637.161 967.826 627.781 968.609 621.121 966.607C604.545 961.625 602.664 943.092 605.807 928.698C606.435 925.824 609.152 921.248 610.321 917.986L609.745 917.359C607.472 918.177 606.497 920.448 605.323 922.588C598.81 934.453 600.315 946.77 604.107 959.309C595.232 962.328 591.13 962.78 582.426 958.717C559.323 947.932 567.591 921.889 578.964 905.747C580.13 904.093 581.571 902.256 582.294 900.384C580.868 898.819 578.89 900.434 578.53 899.342C572.919 882.299 563.146 878.805 549.01 870.152C538.954 863.996 527.019 851.588 519.335 842.344C512.064 833.598 507.059 821.692 500.524 812.274C498.427 809.198 496.621 799.243 493.533 797.515C490.988 803.242 500.196 819.064 502.867 824.874C457.752 829.019 406.025 814.422 372.105 783.319C364.247 776.113 353.453 763.09 348.105 754.293C338.923 739.188 332.204 721.02 330.965 703.4C326.807 672.217 331.534 643.011 339.04 612.758C342.255 599.802 344.831 587.208 349.301 574.531C350.643 570.656 354.149 562.687 354.113 559.143C353.903 559.235 353.692 559.327 353.482 559.418L354.084 559.544L353.22 559.752C351.844 561.571 350.635 563.828 349.777 565.946C328.707 617.927 313.763 680.753 334.311 734.836C322.342 745.832 311.846 758.33 303.083 772.019C289.951 763.15 289.299 755.757 290.67 740.273C290.865 738.065 291.891 736.184 291.278 734.366L290.116 734.379C289.27 734.952 288.388 735.622 288.177 736.67C285.971 747.623 286.294 756.691 290.555 766.555L289.946 766.248C281.896 762.154 275.949 758.073 273.274 748.814C270.847 740.892 271.004 725.543 276.352 718.856C284.939 708.122 285.027 704.08 287.002 691.037C288.934 678.277 294.37 663.815 298.553 651.479C301.183 643.72 303.502 635.667 306.352 627.846C314.76 605.461 324.518 583.606 335.573 562.403C339.865 554.356 346.653 545.661 350.767 537.804L350.986 537.378C357.311 539.25 381.257 546.169 386.293 543.549C384.87 540.672 360.813 536.626 355.666 534.097C340.755 526.771 322.892 524.954 308.272 516.461C283.878 502.289 260.758 487.232 249.158 460.16C247.296 455.834 246.242 450.383 244.939 445.736L244.347 445.455C241.637 446.725 237.954 453.575 236.041 456.492C234.26 445.751 234.653 434.76 237.197 424.173C238.089 420.37 241.322 414.039 240.422 411.665C237.791 411.017 231.95 413.806 229.178 414.927C233.794 400.711 246.456 384.028 261.146 379.172C263.009 378.556 266.061 378.141 268.066 377.807C270.195 372.052 271.338 362.238 272.921 355.999C275.83 344.715 277.74 332.943 280.582 321.696C285.481 302.301 294.314 283.35 300.946 264.554C305.949 250.374 312.88 247.928 325.668 241.846C330.625 239.488 335.802 238.52 340.871 236.533C358.106 229.491 375.953 226.741 394.299 224.179Z"/><path d="M335.008 255.685C347.161 256.571 352.529 267.015 355.186 277.528C361.412 302.169 352.851 330.773 339.867 351.838C348.967 350.84 366.221 349.814 373.206 356.195C381.448 363.725 376.31 374.768 369.537 381.344C362.083 388.58 352.147 392.649 341.752 392.814C331.592 392.832 325.67 386.073 319.359 379.409C314.606 384.28 310.112 391.339 310.394 398.367C310.878 409.031 319.243 417.973 330.311 416.8C339.641 415.812 343.04 410.366 348.471 403.844C362.523 416.222 388.91 417.138 405.712 409.596C413.48 406.109 416.965 399.467 419.572 391.784C417.838 389.843 414.272 385.666 412.427 384.13C409.985 382.099 404.198 380.79 402.075 377.963L402.284 377.284C404.863 376.905 407.092 378.22 409.377 379.286C425.981 387.031 439.413 410.76 444.85 427.75C453.73 460.087 452.867 487.52 421.553 506.215C405.618 515.729 385.999 518.273 367.714 515.938C362.154 515.228 356.113 513.478 350.696 512.163C347.009 485.016 339.792 460.449 328.123 435.496C326.476 432.599 321.858 422.68 319.787 421.097C310.328 414.04 305.704 410.26 305.285 397.711C304.906 386.392 312.146 382.085 317.502 374.49L316.872 373.335C313.272 372.229 306.332 377.015 300.992 377.838C287.648 379.894 282.142 364.966 280.802 353.509C277.787 327.722 287.353 297.96 303.067 277.394C310.959 267.065 321.629 257.317 335.008 255.685Z"/><path fill="#D9AAA1" d="M439.661 446.202C445.9 445.307 444.283 450.279 444.665 454.759C447.626 489.446 418.232 508.567 386.917 511.567C380.579 512.174 374.064 511.655 367.784 511.43C365.629 511.246 360.066 511.156 360.614 507.556C366.309 470.163 404.684 448.546 439.661 446.202Z"/><path fill="#F1F1F0" d="M333.498 260.532C340.327 260.031 343.225 262.812 346.2 268.729C310.75 275.485 284.273 324.756 296.034 357.912C298.436 364.683 300.088 367.194 306.314 370.554L306.932 370.874L307.017 371.421C306.324 372.001 305.907 372.375 305.043 372.69C295.562 376.75 289.024 368.947 286.877 359.969C281.728 337.621 288.542 312.595 298.925 292.693C306.636 277.914 317.247 265.642 333.498 260.532Z"/><path fill="#F1F1F0" d="M332.4 284.547C348.303 283.932 345.589 303.441 340.732 312.884C337.244 319.666 335.06 322.029 327.909 324.661C323.813 324.533 321.034 323.194 318.976 319.502C311.057 305.296 317.655 289.55 332.4 284.547Z"/><path fill="#F1F1F0" d="M324.73 338.336C330.877 339.705 332.986 344.678 327.499 348.143L327.018 348.179C318.802 348.868 320.859 342.701 324.73 338.336Z"/><path fill="#F1F1F0" d="M362.695 358.929C363.86 358.987 365.039 359.257 366.007 359.311C371.161 359.602 375.155 366.519 370.105 369.889C369.736 369.505 368.131 367.844 367.989 367.497C366.661 364.237 360.226 361.817 359.732 361.256C359.84 360.295 361.944 359.384 362.695 358.929Z"/><path d="M503.257 268.212C516.423 267.467 537.691 277.678 547.234 286.428C554.617 293.199 563.76 308.622 566.73 318.324C568.198 323.895 569.143 330.503 569.237 336.215C569.647 361.048 560.088 384.478 539.422 398.868C522.892 410.379 514.199 412.908 494.571 413.775C478.03 413.344 460.749 406.523 448.197 395.892C433.49 383.199 429.986 367.869 428.166 349.491C423.854 305.934 460.971 271.118 503.257 268.212Z"/><path fill="#F1F1F0" d="M499.925 274.218C517.103 273.817 536.708 281.697 547.824 294.998C551.251 299.099 554.482 304.908 557.036 309.594C571.817 336.722 562.737 374.53 538.991 393.584C523.897 405.711 506.882 409.864 487.873 407.587C485.059 407.376 481.502 406.839 478.642 406.488C493.9 402.946 505.738 400.711 518.038 390.595C529.447 381.213 541.524 365.469 542.729 350.468C543.94 335.391 543.385 315.34 533.07 303.325C517.069 284.689 508.196 280.248 484.074 277.6C490.117 275.615 493.597 274.89 499.925 274.218Z"/><path fill="#F1F1F0" d="M472.737 289.958C486.226 289.852 497.295 300.606 497.577 314.092C497.859 327.578 487.251 338.787 473.77 339.245C464.891 339.547 456.537 335.049 451.902 327.47C447.267 319.891 447.068 310.405 451.382 302.639C455.695 294.873 463.854 290.028 472.737 289.958Z"/><path fill="#F1F1F0" d="M501.166 364.363C503.987 363.554 506.944 365.115 507.87 367.9C508.796 370.685 507.362 373.705 504.618 374.747C502.737 375.461 500.617 375.087 499.094 373.772C497.572 372.458 496.893 370.414 497.325 368.45C497.757 366.486 499.232 364.916 501.166 364.363Z"/><path d="M666.614 380.16C683.907 378.663 697.549 390.671 697.05 408.133C696.981 410.545 696.962 413.559 696.261 415.86L695.161 416.434C692.726 414.972 694.001 406.273 693.055 402.629C692.032 398.685 692.138 398.763 690.172 395.229C680.394 383.442 668.055 381.498 654.482 387.706C651.869 388.901 647.976 392.751 645.403 391.878C645.328 390.905 645.168 391.01 645.795 390.301C651.349 384.018 658.851 381.265 666.614 380.16Z"/><path fill="#F1F1F0" d="M743.586 563.855C746.235 558.308 755.212 546.009 758.804 540.675C785.264 500.863 822.761 470.607 868.223 455.275C876.126 452.61 888.087 448.718 896.203 447.674C926.397 443.79 969.762 449.292 993.044 470.385C959.951 487.339 932.363 513.354 913.498 545.396C906.498 557.331 899.654 572.172 892.925 584.686C887.727 594.354 877.146 607.16 873.524 615.652C879.95 610.969 889.103 599.006 893.388 592.264C891.003 598.704 885.834 616.517 883.288 620.578C869.182 651.752 849.269 679.955 824.613 703.681C819.098 709.041 813.142 713.93 806.809 718.295C803.447 720.636 793.618 726.5 792.501 729.866L793.104 730.672C796.88 732.007 804.954 730.729 809.441 730.45C806.108 733.262 802.915 737.002 799.53 739.962C793.948 744.596 786.983 750.137 780.677 753.72C764.68 762.809 743.826 770.725 726.02 775.008C700.867 781.059 666.453 782.396 641.296 776.303C640.209 772.483 639.386 767.655 638.542 763.674C632.567 735.504 619.61 712.101 608.071 685.946C642.223 678.62 673.281 656.995 696.995 631.597C701.358 627.029 704.896 620.472 709.054 615.948C723.543 600.181 731.163 580.886 743.586 563.855Z"/><path fill="#818286" d="M743.586 563.855C746.235 558.308 755.212 546.009 758.804 540.675C785.264 500.863 822.761 470.607 868.223 455.275C876.126 452.61 888.087 448.718 896.203 447.674C926.397 443.79 969.762 449.292 993.044 470.385C959.951 487.339 932.363 513.354 913.498 545.396C906.498 557.331 899.654 572.172 892.925 584.686C887.727 594.354 877.146 607.16 873.524 615.652C879.95 610.969 889.103 599.006 893.388 592.264C891.003 598.704 885.834 616.517 883.288 620.578C880.992 619.659 872.921 626.768 870.639 628.427C853.334 641.004 815.37 663.477 795.387 668.588C800.541 660.697 809.455 653.231 814.907 644.955C818.086 640.406 821.945 635.914 824.517 630.972C831.677 617.213 836.418 602.244 840.868 587.451C843.725 577.952 844.634 569.294 845.74 559.562C838.537 568.863 814.047 588.383 803.535 595.68C785.235 608.384 756.088 625.516 734.661 630.468C754.386 608.028 767.722 569.688 773.884 540.93C767.633 545.444 761.486 550.1 755.447 554.894C752.464 557.25 746.642 562.174 743.586 563.855Z"/><path fill="#F1F1F0" d="M335.782 738.877C336.091 739.27 341.697 750.727 342.661 752.374C368.464 796.456 399.322 812.833 446.065 825.953C427.922 839.541 408.198 844.331 403.115 869.126C407.104 865.285 409.189 861.019 412.549 856.641C412.129 866.77 415.371 887.883 409.359 894.932C391.111 916.332 352.117 924.943 325.218 925.481C311.748 925.75 296.938 928.136 286.106 921.394C281.508 906.371 286.27 895.103 298.606 886.081C301.964 884.171 303.184 883.271 305.955 880.67C283.712 887.015 278.71 901.472 282.392 922.753C274.551 920.297 268.815 918.92 266.233 911.033C260.261 892.793 269.59 872.941 289.972 870.767C290.846 870.674 291.184 870.067 291.463 869.365L290.333 868.523C280.143 866.859 270.989 872.149 266.113 880.982C260.228 891.64 259.99 903.203 263.112 914.723C253.452 902.687 253.491 890.419 258.867 875.863C262.522 865.967 278.511 863.747 287.888 860.585C292.449 855.244 301.681 849.458 308.526 847.757C309.944 849.632 310.486 850.511 312.723 851.057L313.24 850.55C312.657 848.508 308.737 844.121 307.395 842.113C296.224 825.399 294.115 812.088 299.696 793.167C306.674 769.514 320.437 756.675 335.782 738.877Z"/><path fill="#F1F1F0" d="M662.252 126.59C665.238 126.561 671.686 127.19 673.396 129.792C677.252 135.656 679.476 146.459 680.521 153.42C684.058 178.787 686.218 205.767 684.347 231.36C682.131 261.687 673.78 292.421 670.647 322.531C663.04 311.481 649.873 295.738 641.207 284.951C646.725 263.6 650.102 243.04 651.437 221.069C652.73 199.793 654.329 180.062 651.767 158.781C650.721 157.647 651.357 157.966 649.765 157.856C630.477 169.153 576.229 212.798 569.295 233.444C563.397 230.326 555.643 225.184 549.712 222.63C541.512 219.101 531.815 215.822 523.332 212.654C549.217 182.333 623.675 135.483 662.252 126.59Z"/><path fill="#E04C48" d="M432.135 201.736C467.991 200.493 514.745 213.847 547.606 227.266C564.048 236.156 584.146 245.943 599.257 256.718C621.146 272.326 658.721 305.629 668.114 331.023C662.798 331.357 660.135 332.104 655.025 333.539C650.321 326.983 643.835 321.184 638.119 315.525C621.786 299.356 603.575 285.046 585.076 271.403C579.174 267.101 571.294 262.804 564.855 259.315C543.169 247.319 520.261 237.68 496.523 230.563C480.123 225.691 455.818 221.474 438.775 219.786C407.659 216.435 376.187 219.765 346.461 229.553C332.267 234.07 324.472 236.768 311.171 243.912C312.574 239.819 314.596 231.394 315.669 228.656C319.225 225.2 326.912 222.204 331.711 219.918C365.732 203.71 395.129 202.355 432.135 201.736Z"/><path fill="#F1F1F0" d="M397.632 94.3798C398.687 94.3986 399.374 94.5776 400.264 95.1254C411.454 102.011 436.909 162.607 441.456 175.615C443.846 182.453 445.261 189.622 446.854 196.677C428.408 195.299 422.796 194.876 403.848 196.581C396.96 176.384 393.448 154.626 390.914 133.472C390.533 130.287 391.012 125.953 389.937 123.036L389.14 123.044C383.832 126.274 372.651 144.096 369.514 149.845C358.834 169.071 349.024 188.884 342.153 209.82C331.713 214.052 325.447 217.336 315.442 222.647L315.767 221.689C320.59 207.526 328.455 185.889 335.267 172.752C347.583 148.998 373.73 106.151 397.632 94.3798Z"/><path fill="#818286" d="M648.378 162.957L648.924 163.749C651.466 194.93 646.958 231.034 642.359 262.25C641.341 269.161 640.98 277.065 639.185 283.699C626.627 272.245 616.959 263.544 602.924 253.44C590.8 245.091 584.623 241.225 571.308 234.74C580.521 217.11 605.09 195.653 620.887 183.658C628.48 177.892 640.433 167.725 648.378 162.957Z"/><path fill="#818286" d="M387.291 128.864C387.857 131.486 388.181 141.141 388.713 144.968C391.451 164.667 393.803 178.049 401.323 196.441C386.419 198.205 372.129 200.382 357.657 204.339L346.335 208.144C351.946 192.683 377.106 139.136 387.291 128.864Z"/><path fill="#F1F1F0" d="M680.755 462.324C689.175 464.531 700.699 479.992 706.267 486.767C696.668 493.157 687.456 499.009 675.552 500.013C672.833 500.243 670.306 500.365 667.605 500.789C664.298 505.45 674.632 511.337 678.029 513.419C670.976 518.673 666.117 521.811 658.15 525.388C649.155 529.321 638.779 530.76 629.097 532.484C634.178 526.282 638.924 518.141 643.535 511.417C648.497 504.005 654.697 497.228 659.816 489.976C666.697 480.23 672.745 471.266 680.755 462.324Z"/><path fill="#E04C48" d="M737.173 290.036L737.865 290.314C740.037 294.207 741.882 299.357 743.227 303.616C738.022 304.723 730.707 307.174 725.532 308.849C713.191 312.843 689.795 319.36 679.124 325.534L674.607 328.03C675.512 323.445 676.158 318.176 676.837 313.509C678.916 312.568 681.842 310.937 683.756 309.636C699.453 298.966 720.323 297.425 737.173 290.036Z"/><path fill="#E04C48" d="M675.408 332.138C678.593 331.869 693.278 333.644 698.567 333.607C716.741 333.478 734.02 333.477 752.185 334.729C752.953 338.469 754.048 343.224 754.237 347.074C754.302 348.383 753.88 348.394 753.01 349.114C740.649 349.034 730.072 347.59 718.496 347.426C708.604 336.043 696.299 335.651 682.924 340.116C680.442 336.682 677.407 334.968 675.408 332.138Z"/><path d="M692.732 104.788C696.225 104.718 699.682 109.896 701.448 112.531C715.852 134.033 717.812 160.035 717.3 185.152C717.205 189.783 717.43 197.902 716.544 202.227C715.456 202.356 716.015 202.403 714.873 202.016C713.04 197.419 714.108 187.092 713.917 181.742C713.381 166.681 713.838 151.764 708.461 137.381C706.667 132.582 705.456 127.379 703.327 122.683C700.594 116.954 696.476 111.613 692.844 106.431C692.807 105.883 692.769 105.336 692.732 104.788Z"/><path d="M333.925 112.474L334.463 113.491C333.669 115.132 330.157 118.403 328.696 119.783C309.193 138.206 297.184 162.969 288.191 187.864C286.615 192.227 283.86 206.04 281.673 208.589C279.701 206.56 281.043 202.454 281.655 199.911C288.784 170.253 307.74 128.826 333.925 112.474Z"/><path d="M925.325 598.237C926.384 598.768 925.918 598.413 926.561 599.516C925.723 617.769 910.127 655.569 899.811 671.69C895.451 678.503 888.852 686.258 883.376 692.386L882.244 691.531C882.181 691.246 882.118 690.961 882.055 690.676C885.665 685.866 895.421 672.8 897.821 668.593C904.354 657.14 908.49 646.423 913.357 634.657C918.432 622.385 920.7 610.275 925.325 598.237Z"/><path d="M822.208 758.796C822.444 758.815 823.354 759.137 823.62 759.224L823.869 759.997C822.748 762.228 812.892 770.503 810.335 772.806C789.823 791.27 762.668 807.066 735.121 811.395C733.397 811.371 734.094 811.666 732.883 810.703C733.399 808.495 745.987 805.512 749.045 804.583C776.754 796.166 800.626 777.876 822.208 758.796Z"/><path d="M916.654 413.22C930.968 413.104 943.583 414.127 957.451 418.041C962.111 419.356 981.838 425.586 983.881 429.164L983.536 429.776C979.458 429.769 964.926 424.04 959.605 422.453C943.461 417.252 925.848 415.32 908.883 417.136C903.45 417.717 894.789 420.361 889.797 420.453L889.673 419.591C893.541 415.708 911.08 413.5 916.654 413.22Z"/><path d="M218.831 376.252C219.667 376.427 219.202 376.269 220.172 376.861C219.904 379.172 213.729 388.266 212.551 391.172C203.831 412.704 203.184 434.598 207.783 457.15C208.107 458.739 208.238 459.4 207.307 460.651C203.708 456.845 202.523 444.655 202.021 439.308C199.91 416.858 204.56 393.838 218.831 376.252Z"/><path d="M243.999 722.77L244.577 723.186C245.455 725.253 244.237 729.03 244.236 731.483C244.232 746.204 247.48 760.505 254.755 773.367C256.372 776.226 261.701 780.756 261.846 783.472L260.875 784.163C247.079 776.113 235.916 734.927 243.999 722.77Z"/><path d="M260.572 611.085C261.705 611.243 261.624 611.23 262.539 611.929C265.619 621.969 253.739 662.74 248.503 672.753C247.641 673.167 248.11 673.093 247.085 672.892C246.588 670.905 255.365 643.601 256.561 638.25C258.583 629.195 259.003 620.154 260.572 611.085Z"/><path d="M825.53 780.825C830.086 782.991 821.847 788.292 819.784 790.075C810.727 797.906 798.831 807.545 787.599 812.055C785.552 811.279 785.376 810.334 787.297 809.236C800.646 801.605 814.111 791.109 825.53 780.825Z"/><path d="M195.916 392.634C196.844 393.05 198.363 393.565 197.449 394.971C191.373 404.32 190.067 415.401 189.13 426.25C188.752 430.628 191.196 439.379 189.358 443.055C189.099 442.915 187.751 442.279 187.668 441.902C184.195 426.056 186.604 406.251 195.916 392.634Z"/><path d="M721.728 133.658C725.031 134.601 724.275 135.792 725.954 138.77C728.911 144.003 730.588 147.464 730.52 153.53C730.43 161.518 731.656 168.744 730.068 176.75C725.449 176.956 727.931 169.271 727.474 166C726.767 160.947 727.694 153.632 726.497 148.751C725.249 143.659 721.589 139.501 721.728 133.658Z"/><path d="M246.64 612.747C246.802 612.864 247.462 613.27 247.477 613.351C248.279 617.593 245.866 634.334 245.073 637.504C242.707 646.969 239.795 655.609 234.625 663.214C232.533 661.935 233.579 660.711 234.448 658.735C239.685 646.815 243.471 634.829 245.024 621.886C245.368 619.024 245.663 615.439 246.64 612.747Z"/><path d="M290.402 142.277C291.862 142.435 292.54 142.712 291.479 144.224C285.984 151.903 281.445 160.222 277.96 168.998C276.221 173.378 275.53 177.126 273.333 181.397C270.593 180.334 271.299 179.924 272.097 176.749C275.092 164.831 281.611 150.977 290.402 142.277Z"/><path d="M927.84 638.725C928.468 638.945 930.132 639.364 930.006 640.241C928.842 648.338 924.4 657.641 920.735 664.903C919.45 667.449 915.554 671.963 913.906 674.08C910.789 673.735 914.944 667.61 915.842 666.375C921.934 657.991 923.826 647.627 927.84 638.725Z"/><path d="M930.984 398.212C941.77 397.399 954.477 397.573 963.511 404.251C964.783 405.191 969.522 407.3 965.866 408.079C960.873 405.992 958.345 404.188 952.749 402.563C949.551 401.635 929.571 400.652 929.231 399.845C929.156 399.663 929.156 399.46 929.231 399.279C929.484 398.678 930.468 398.414 930.984 398.212Z"/><path d="M232.548 749.693C235.412 751.468 233.262 755.912 233.906 760.003C234.945 766.602 235.685 771.329 239.309 777.185C240.437 779.009 242.087 781.79 242.581 783.775C238.821 783.08 238.006 780.541 236.137 777.197C231.81 769.459 230.045 758.301 232.548 749.693Z"/></svg>